<mxfile host="app.diagrams.net" modified="2022-09-29T16:11:07.463Z" agent="5.0 (Windows NT 10.0; Win64; x64) AppleWebKit/537.36 (KHTML, like Gecko) Chrome/105.0.0.0 Safari/537.36" etag="mL3qUISmjd3h6zwbzc7U" version="20.3.7" type="gitlab" pages="2">
  <diagram id="0ZXcyS9M2R0SP4VQ3H3g" name="DiagrammeDeClasse">
    <mxGraphModel dx="-232" dy="1971" grid="1" gridSize="10" guides="1" tooltips="1" connect="1" arrows="1" fold="1" page="1" pageScale="1" pageWidth="827" pageHeight="1169" math="0" shadow="0">
      <root>
        <mxCell id="0" />
        <mxCell id="1" parent="0" />
        <object label="Article" id="AytKO8r61_Ed5eo6YVjA-1">
          <mxCell style="swimlane;fontStyle=0;align=center;verticalAlign=top;childLayout=stackLayout;horizontal=1;startSize=26;horizontalStack=0;resizeParent=1;resizeLast=0;collapsible=1;marginBottom=0;rounded=1;shadow=0;strokeWidth=1;fillColor=#A8DADC;strokeColor=#457B9D;fontColor=#1D3557;" parent="1" vertex="1">
            <mxGeometry x="2350" y="-1100" width="244" height="330" as="geometry">
              <mxRectangle x="2240" y="50" width="160" height="26" as="alternateBounds" />
            </mxGeometry>
          </mxCell>
        </object>
        <mxCell id="AytKO8r61_Ed5eo6YVjA-2" value="- id: String" style="text;strokeColor=none;fillColor=none;align=left;verticalAlign=top;spacingLeft=4;spacingRight=4;overflow=hidden;rotatable=0;points=[[0,0.5],[1,0.5]];portConstraint=eastwest;rounded=0;sketch=0;fontColor=#1D3557;" parent="AytKO8r61_Ed5eo6YVjA-1" vertex="1">
          <mxGeometry y="26" width="244" height="26" as="geometry" />
        </mxCell>
        <mxCell id="AytKO8r61_Ed5eo6YVjA-3" value="- referenceIris: String" style="text;strokeColor=none;fillColor=none;align=left;verticalAlign=top;spacingLeft=4;spacingRight=4;overflow=hidden;rotatable=0;points=[[0,0.5],[1,0.5]];portConstraint=eastwest;rounded=0;sketch=0;fontColor=#1D3557;" parent="AytKO8r61_Ed5eo6YVjA-1" vertex="1">
          <mxGeometry y="52" width="244" height="26" as="geometry" />
        </mxCell>
        <mxCell id="AytKO8r61_Ed5eo6YVjA-4" value="- referenceClient: String" style="text;strokeColor=none;fillColor=none;align=left;verticalAlign=top;spacingLeft=4;spacingRight=4;overflow=hidden;rotatable=0;points=[[0,0.5],[1,0.5]];portConstraint=eastwest;rounded=0;sketch=0;fontColor=#1D3557;" parent="AytKO8r61_Ed5eo6YVjA-1" vertex="1">
          <mxGeometry y="78" width="244" height="26" as="geometry" />
        </mxCell>
        <mxCell id="AytKO8r61_Ed5eo6YVjA-5" value="- numFicheTechnique: String" style="text;strokeColor=none;fillColor=none;align=left;verticalAlign=top;spacingLeft=4;spacingRight=4;overflow=hidden;rotatable=0;points=[[0,0.5],[1,0.5]];portConstraint=eastwest;rounded=0;sketch=0;fontColor=#1D3557;" parent="AytKO8r61_Ed5eo6YVjA-1" vertex="1">
          <mxGeometry y="104" width="244" height="26" as="geometry" />
        </mxCell>
        <mxCell id="AytKO8r61_Ed5eo6YVjA-6" value="- designation: String" style="text;strokeColor=none;fillColor=none;align=left;verticalAlign=top;spacingLeft=4;spacingRight=4;overflow=hidden;rotatable=0;points=[[0,0.5],[1,0.5]];portConstraint=eastwest;rounded=0;sketch=0;fontColor=#1D3557;" parent="AytKO8r61_Ed5eo6YVjA-1" vertex="1">
          <mxGeometry y="130" width="244" height="26" as="geometry" />
        </mxCell>
        <mxCell id="AytKO8r61_Ed5eo6YVjA-7" value="- type: string" style="text;strokeColor=none;fillColor=none;align=left;verticalAlign=top;spacingLeft=4;spacingRight=4;overflow=hidden;rotatable=0;points=[[0,0.5],[1,0.5]];portConstraint=eastwest;rounded=0;sketch=0;fontColor=#1D3557;" parent="AytKO8r61_Ed5eo6YVjA-1" vertex="1">
          <mxGeometry y="156" width="244" height="26" as="geometry" />
        </mxCell>
        <mxCell id="AytKO8r61_Ed5eo6YVjA-16" value="- dateCreationArticle: Date" style="text;strokeColor=none;fillColor=none;align=left;verticalAlign=top;spacingLeft=4;spacingRight=4;overflow=hidden;rotatable=0;points=[[0,0.5],[1,0.5]];portConstraint=eastwest;rounded=0;sketch=0;fontColor=#1D3557;" parent="AytKO8r61_Ed5eo6YVjA-1" vertex="1">
          <mxGeometry y="182" width="244" height="26" as="geometry" />
        </mxCell>
        <mxCell id="AytKO8r61_Ed5eo6YVjA-19" value="- miseEnVeille: int" style="text;strokeColor=none;fillColor=none;align=left;verticalAlign=top;spacingLeft=4;spacingRight=4;overflow=hidden;rotatable=0;points=[[0,0.5],[1,0.5]];portConstraint=eastwest;rounded=0;sketch=0;fontColor=#1D3557;" parent="AytKO8r61_Ed5eo6YVjA-1" vertex="1">
          <mxGeometry y="208" width="244" height="26" as="geometry" />
        </mxCell>
        <mxCell id="AytKO8r61_Ed5eo6YVjA-22" value="- prix: double" style="text;strokeColor=none;fillColor=none;align=left;verticalAlign=top;spacingLeft=4;spacingRight=4;overflow=hidden;rotatable=0;points=[[0,0.5],[1,0.5]];portConstraint=eastwest;rounded=0;sketch=0;fontColor=#1D3557;" parent="AytKO8r61_Ed5eo6YVjA-1" vertex="1">
          <mxGeometry y="234" width="244" height="26" as="geometry" />
        </mxCell>
        <mxCell id="AytKO8r61_Ed5eo6YVjA-23" value="- idImage: String" style="text;strokeColor=none;fillColor=none;align=left;verticalAlign=top;spacingLeft=4;spacingRight=4;overflow=hidden;rotatable=0;points=[[0,0.5],[1,0.5]];portConstraint=eastwest;rounded=0;sketch=0;fontColor=#1D3557;" parent="AytKO8r61_Ed5eo6YVjA-1" vertex="1">
          <mxGeometry y="260" width="244" height="26" as="geometry" />
        </mxCell>
        <mxCell id="AytKO8r61_Ed5eo6YVjA-24" value="- idClient: String" style="text;strokeColor=none;fillColor=none;align=left;verticalAlign=top;spacingLeft=4;spacingRight=4;overflow=hidden;rotatable=0;points=[[0,0.5],[1,0.5]];portConstraint=eastwest;rounded=0;sketch=0;fontColor=#1D3557;" parent="AytKO8r61_Ed5eo6YVjA-1" vertex="1">
          <mxGeometry y="286" width="244" height="26" as="geometry" />
        </mxCell>
        <object label="Image" id="AytKO8r61_Ed5eo6YVjA-9">
          <mxCell style="swimlane;fontStyle=0;align=center;verticalAlign=top;childLayout=stackLayout;horizontal=1;startSize=26;horizontalStack=0;resizeParent=1;resizeLast=0;collapsible=1;marginBottom=0;rounded=1;shadow=0;strokeWidth=1;fillColor=#A8DADC;strokeColor=#457B9D;fontColor=#1D3557;" parent="1" vertex="1">
            <mxGeometry x="2660" y="-1060" width="213" height="272" as="geometry">
              <mxRectangle x="2240" y="50" width="160" height="26" as="alternateBounds" />
            </mxGeometry>
          </mxCell>
        </object>
        <mxCell id="AytKO8r61_Ed5eo6YVjA-10" value="- id: String" style="text;strokeColor=none;fillColor=none;align=left;verticalAlign=top;spacingLeft=4;spacingRight=4;overflow=hidden;rotatable=0;points=[[0,0.5],[1,0.5]];portConstraint=eastwest;rounded=0;sketch=0;fontColor=#1D3557;" parent="AytKO8r61_Ed5eo6YVjA-9" vertex="1">
          <mxGeometry y="26" width="213" height="26" as="geometry" />
        </mxCell>
        <mxCell id="AytKO8r61_Ed5eo6YVjA-26" style="edgeStyle=orthogonalEdgeStyle;rounded=0;orthogonalLoop=1;jettySize=auto;html=1;entryX=0.5;entryY=1;entryDx=0;entryDy=0;endArrow=none;endFill=0;exitX=0.5;exitY=0;exitDx=0;exitDy=0;" parent="1" source="_FMP9bh4VDa1splXeq67-1" target="AytKO8r61_Ed5eo6YVjA-1" edge="1">
          <mxGeometry relative="1" as="geometry">
            <mxPoint x="2700.5" y="-660" as="sourcePoint" />
          </mxGeometry>
        </mxCell>
        <object label="EtapeDeProduction" id="AytKO8r61_Ed5eo6YVjA-20">
          <mxCell style="swimlane;fontStyle=0;align=center;verticalAlign=top;childLayout=stackLayout;horizontal=1;startSize=26;horizontalStack=0;resizeParent=1;resizeLast=0;collapsible=1;marginBottom=0;rounded=1;shadow=0;strokeWidth=1;fillColor=#A8DADC;strokeColor=#457B9D;fontColor=#1D3557;" parent="1" vertex="1">
            <mxGeometry x="2190" y="-650" width="213" height="272" as="geometry">
              <mxRectangle x="2240" y="50" width="160" height="26" as="alternateBounds" />
            </mxGeometry>
          </mxCell>
        </object>
        <mxCell id="AytKO8r61_Ed5eo6YVjA-21" value="- id: String" style="text;strokeColor=none;fillColor=none;align=left;verticalAlign=top;spacingLeft=4;spacingRight=4;overflow=hidden;rotatable=0;points=[[0,0.5],[1,0.5]];portConstraint=eastwest;rounded=0;sketch=0;fontColor=#1D3557;" parent="AytKO8r61_Ed5eo6YVjA-20" vertex="1">
          <mxGeometry y="26" width="213" height="26" as="geometry" />
        </mxCell>
        <mxCell id="AytKO8r61_Ed5eo6YVjA-25" style="edgeStyle=orthogonalEdgeStyle;rounded=0;orthogonalLoop=1;jettySize=auto;html=1;exitX=1;exitY=0.5;exitDx=0;exitDy=0;endArrow=none;endFill=0;" parent="1" source="AytKO8r61_Ed5eo6YVjA-19" edge="1">
          <mxGeometry relative="1" as="geometry">
            <mxPoint x="2660" y="-879" as="targetPoint" />
          </mxGeometry>
        </mxCell>
        <object label="Client" id="_FMP9bh4VDa1splXeq67-1">
          <mxCell style="swimlane;fontStyle=0;align=center;verticalAlign=top;childLayout=stackLayout;horizontal=1;startSize=26;horizontalStack=0;resizeParent=1;resizeLast=0;collapsible=1;marginBottom=0;rounded=1;shadow=0;strokeWidth=1;fillColor=#A8DADC;strokeColor=#457B9D;fontColor=#1D3557;" vertex="1" parent="1">
            <mxGeometry x="2560" y="-660" width="186" height="501" as="geometry">
              <mxRectangle x="2240" y="50" width="160" height="26" as="alternateBounds" />
            </mxGeometry>
          </mxCell>
        </object>
        <mxCell id="_FMP9bh4VDa1splXeq67-2" value="- id: String" style="text;strokeColor=none;fillColor=none;align=left;verticalAlign=top;spacingLeft=4;spacingRight=4;overflow=hidden;rotatable=0;points=[[0,0.5],[1,0.5]];portConstraint=eastwest;rounded=0;sketch=0;fontColor=#1D3557;" vertex="1" parent="_FMP9bh4VDa1splXeq67-1">
          <mxGeometry y="26" width="186" height="26" as="geometry" />
        </mxCell>
        <mxCell id="_FMP9bh4VDa1splXeq67-3" value="- date: Date" style="text;strokeColor=none;fillColor=none;align=left;verticalAlign=top;spacingLeft=4;spacingRight=4;overflow=hidden;rotatable=0;points=[[0,0.5],[1,0.5]];portConstraint=eastwest;rounded=0;sketch=0;fontColor=#1D3557;" vertex="1" parent="_FMP9bh4VDa1splXeq67-1">
          <mxGeometry y="52" width="186" height="26" as="geometry" />
        </mxCell>
        <mxCell id="_FMP9bh4VDa1splXeq67-4" value="- raisonSocial: String" style="text;strokeColor=none;fillColor=none;align=left;verticalAlign=top;spacingLeft=4;spacingRight=4;overflow=hidden;rotatable=0;points=[[0,0.5],[1,0.5]];portConstraint=eastwest;rounded=0;sketch=0;fontColor=#1D3557;" vertex="1" parent="_FMP9bh4VDa1splXeq67-1">
          <mxGeometry y="78" width="186" height="26" as="geometry" />
        </mxCell>
        <mxCell id="_FMP9bh4VDa1splXeq67-5" value="- regime: String" style="text;strokeColor=none;fillColor=none;align=left;verticalAlign=top;spacingLeft=4;spacingRight=4;overflow=hidden;rotatable=0;points=[[0,0.5],[1,0.5]];portConstraint=eastwest;rounded=0;sketch=0;fontColor=#1D3557;" vertex="1" parent="_FMP9bh4VDa1splXeq67-1">
          <mxGeometry y="104" width="186" height="26" as="geometry" />
        </mxCell>
        <mxCell id="_FMP9bh4VDa1splXeq67-6" value="- secteurActivite: String" style="text;strokeColor=none;fillColor=none;align=left;verticalAlign=top;spacingLeft=4;spacingRight=4;overflow=hidden;rotatable=0;points=[[0,0.5],[1,0.5]];portConstraint=eastwest;rounded=0;sketch=0;fontColor=#1D3557;" vertex="1" parent="_FMP9bh4VDa1splXeq67-1">
          <mxGeometry y="130" width="186" height="26" as="geometry" />
        </mxCell>
        <mxCell id="_FMP9bh4VDa1splXeq67-7" value="- brancheActivite: String" style="text;strokeColor=none;fillColor=none;align=left;verticalAlign=top;spacingLeft=4;spacingRight=4;overflow=hidden;rotatable=0;points=[[0,0.5],[1,0.5]];portConstraint=eastwest;rounded=0;sketch=0;fontColor=#1D3557;" vertex="1" parent="_FMP9bh4VDa1splXeq67-1">
          <mxGeometry y="156" width="186" height="26" as="geometry" />
        </mxCell>
        <mxCell id="_FMP9bh4VDa1splXeq67-8" value="- adresseFacturation: String" style="text;strokeColor=none;fillColor=none;align=left;verticalAlign=top;spacingLeft=4;spacingRight=4;overflow=hidden;rotatable=0;points=[[0,0.5],[1,0.5]];portConstraint=eastwest;rounded=0;sketch=0;fontColor=#1D3557;" vertex="1" parent="_FMP9bh4VDa1splXeq67-1">
          <mxGeometry y="182" width="186" height="26" as="geometry" />
        </mxCell>
        <mxCell id="_FMP9bh4VDa1splXeq67-9" value="- adresseLivraison: String" style="text;strokeColor=none;fillColor=none;align=left;verticalAlign=top;spacingLeft=4;spacingRight=4;overflow=hidden;rotatable=0;points=[[0,0.5],[1,0.5]];portConstraint=eastwest;rounded=0;sketch=0;fontColor=#1D3557;" vertex="1" parent="_FMP9bh4VDa1splXeq67-1">
          <mxGeometry y="208" width="186" height="26" as="geometry" />
        </mxCell>
        <mxCell id="_FMP9bh4VDa1splXeq67-10" value="- incoterm: String" style="text;strokeColor=none;fillColor=none;align=left;verticalAlign=top;spacingLeft=4;spacingRight=4;overflow=hidden;rotatable=0;points=[[0,0.5],[1,0.5]];portConstraint=eastwest;rounded=0;sketch=0;fontColor=#1D3557;" vertex="1" parent="_FMP9bh4VDa1splXeq67-1">
          <mxGeometry y="234" width="186" height="26" as="geometry" />
        </mxCell>
        <mxCell id="_FMP9bh4VDa1splXeq67-11" value="- echeance: String" style="text;strokeColor=none;fillColor=none;align=left;verticalAlign=top;spacingLeft=4;spacingRight=4;overflow=hidden;rotatable=0;points=[[0,0.5],[1,0.5]];portConstraint=eastwest;rounded=0;sketch=0;fontColor=#1D3557;" vertex="1" parent="_FMP9bh4VDa1splXeq67-1">
          <mxGeometry y="260" width="186" height="26" as="geometry" />
        </mxCell>
        <mxCell id="_FMP9bh4VDa1splXeq67-12" value="- modePaiement: String" style="text;strokeColor=none;fillColor=none;align=left;verticalAlign=top;spacingLeft=4;spacingRight=4;overflow=hidden;rotatable=0;points=[[0,0.5],[1,0.5]];portConstraint=eastwest;rounded=0;sketch=0;fontColor=#1D3557;" vertex="1" parent="_FMP9bh4VDa1splXeq67-1">
          <mxGeometry y="286" width="186" height="26" as="geometry" />
        </mxCell>
        <mxCell id="_FMP9bh4VDa1splXeq67-13" value="- nomBanque: String" style="text;strokeColor=none;fillColor=none;align=left;verticalAlign=top;spacingLeft=4;spacingRight=4;overflow=hidden;rotatable=0;points=[[0,0.5],[1,0.5]];portConstraint=eastwest;rounded=0;sketch=0;fontColor=#1D3557;" vertex="1" parent="_FMP9bh4VDa1splXeq67-1">
          <mxGeometry y="312" width="186" height="26" as="geometry" />
        </mxCell>
        <mxCell id="_FMP9bh4VDa1splXeq67-14" value="- adresseBanque: String" style="text;strokeColor=none;fillColor=none;align=left;verticalAlign=top;spacingLeft=4;spacingRight=4;overflow=hidden;rotatable=0;points=[[0,0.5],[1,0.5]];portConstraint=eastwest;rounded=0;sketch=0;fontColor=#1D3557;" vertex="1" parent="_FMP9bh4VDa1splXeq67-1">
          <mxGeometry y="338" width="186" height="26" as="geometry" />
        </mxCell>
        <mxCell id="_FMP9bh4VDa1splXeq67-15" value="- rib: String" style="text;strokeColor=none;fillColor=none;align=left;verticalAlign=top;spacingLeft=4;spacingRight=4;overflow=hidden;rotatable=0;points=[[0,0.5],[1,0.5]];portConstraint=eastwest;rounded=0;sketch=0;fontColor=#1D3557;" vertex="1" parent="_FMP9bh4VDa1splXeq67-1">
          <mxGeometry y="364" width="186" height="26" as="geometry" />
        </mxCell>
        <mxCell id="_FMP9bh4VDa1splXeq67-16" value="- swift: String" style="text;strokeColor=none;fillColor=none;align=left;verticalAlign=top;spacingLeft=4;spacingRight=4;overflow=hidden;rotatable=0;points=[[0,0.5],[1,0.5]];portConstraint=eastwest;rounded=0;sketch=0;fontColor=#1D3557;" vertex="1" parent="_FMP9bh4VDa1splXeq67-1">
          <mxGeometry y="390" width="186" height="26" as="geometry" />
        </mxCell>
        <mxCell id="FOTAg63aiwvnKK2qQDpg-1" value="- miseEnVeille: int" style="text;strokeColor=none;fillColor=none;align=left;verticalAlign=top;spacingLeft=4;spacingRight=4;overflow=hidden;rotatable=0;points=[[0,0.5],[1,0.5]];portConstraint=eastwest;rounded=0;sketch=0;fontColor=#1D3557;" vertex="1" parent="_FMP9bh4VDa1splXeq67-1">
          <mxGeometry y="416" width="186" height="26" as="geometry" />
        </mxCell>
        <mxCell id="_FMP9bh4VDa1splXeq67-17" value="- dateMiseEnVeille: Date" style="text;strokeColor=none;fillColor=none;align=left;verticalAlign=top;spacingLeft=4;spacingRight=4;overflow=hidden;rotatable=0;points=[[0,0.5],[1,0.5]];portConstraint=eastwest;rounded=0;sketch=0;fontColor=#1D3557;" vertex="1" parent="_FMP9bh4VDa1splXeq67-1">
          <mxGeometry y="442" width="186" height="26" as="geometry" />
        </mxCell>
        <mxCell id="WxJLq1IWkGxh-6cS0ORL-9" style="edgeStyle=orthogonalEdgeStyle;rounded=0;orthogonalLoop=1;jettySize=auto;html=1;exitX=0;exitY=0.5;exitDx=0;exitDy=0;endArrow=none;endFill=0;" edge="1" parent="1" source="FOTAg63aiwvnKK2qQDpg-2" target="_FMP9bh4VDa1splXeq67-7">
          <mxGeometry relative="1" as="geometry" />
        </mxCell>
        <object label="Contact" id="FOTAg63aiwvnKK2qQDpg-2">
          <mxCell style="swimlane;fontStyle=0;align=center;verticalAlign=top;childLayout=stackLayout;horizontal=1;startSize=26;horizontalStack=0;resizeParent=1;resizeLast=0;collapsible=1;marginBottom=0;rounded=1;shadow=0;strokeWidth=1;fillColor=#A8DADC;strokeColor=#457B9D;fontColor=#1D3557;" vertex="1" parent="1">
            <mxGeometry x="2950" y="-670" width="213" height="272" as="geometry">
              <mxRectangle x="2240" y="50" width="160" height="26" as="alternateBounds" />
            </mxGeometry>
          </mxCell>
        </object>
        <mxCell id="FOTAg63aiwvnKK2qQDpg-3" value="- id: String" style="text;strokeColor=none;fillColor=none;align=left;verticalAlign=top;spacingLeft=4;spacingRight=4;overflow=hidden;rotatable=0;points=[[0,0.5],[1,0.5]];portConstraint=eastwest;rounded=0;sketch=0;fontColor=#1D3557;" vertex="1" parent="FOTAg63aiwvnKK2qQDpg-2">
          <mxGeometry y="26" width="213" height="26" as="geometry" />
        </mxCell>
        <mxCell id="WxJLq1IWkGxh-6cS0ORL-10" value="- nom: String" style="text;strokeColor=none;fillColor=none;align=left;verticalAlign=top;spacingLeft=4;spacingRight=4;overflow=hidden;rotatable=0;points=[[0,0.5],[1,0.5]];portConstraint=eastwest;rounded=0;sketch=0;fontColor=#1D3557;" vertex="1" parent="FOTAg63aiwvnKK2qQDpg-2">
          <mxGeometry y="52" width="213" height="26" as="geometry" />
        </mxCell>
        <mxCell id="WxJLq1IWkGxh-6cS0ORL-11" value="- fonction: String" style="text;strokeColor=none;fillColor=none;align=left;verticalAlign=top;spacingLeft=4;spacingRight=4;overflow=hidden;rotatable=0;points=[[0,0.5],[1,0.5]];portConstraint=eastwest;rounded=0;sketch=0;fontColor=#1D3557;" vertex="1" parent="FOTAg63aiwvnKK2qQDpg-2">
          <mxGeometry y="78" width="213" height="26" as="geometry" />
        </mxCell>
        <mxCell id="WxJLq1IWkGxh-6cS0ORL-12" value="- adresse: String" style="text;strokeColor=none;fillColor=none;align=left;verticalAlign=top;spacingLeft=4;spacingRight=4;overflow=hidden;rotatable=0;points=[[0,0.5],[1,0.5]];portConstraint=eastwest;rounded=0;sketch=0;fontColor=#1D3557;" vertex="1" parent="FOTAg63aiwvnKK2qQDpg-2">
          <mxGeometry y="104" width="213" height="26" as="geometry" />
        </mxCell>
        <mxCell id="WxJLq1IWkGxh-6cS0ORL-13" value="- téléphone: String" style="text;strokeColor=none;fillColor=none;align=left;verticalAlign=top;spacingLeft=4;spacingRight=4;overflow=hidden;rotatable=0;points=[[0,0.5],[1,0.5]];portConstraint=eastwest;rounded=0;sketch=0;fontColor=#1D3557;" vertex="1" parent="FOTAg63aiwvnKK2qQDpg-2">
          <mxGeometry y="130" width="213" height="26" as="geometry" />
        </mxCell>
        <mxCell id="WxJLq1IWkGxh-6cS0ORL-16" value="- mobile: String" style="text;strokeColor=none;fillColor=none;align=left;verticalAlign=top;spacingLeft=4;spacingRight=4;overflow=hidden;rotatable=0;points=[[0,0.5],[1,0.5]];portConstraint=eastwest;rounded=0;sketch=0;fontColor=#1D3557;" vertex="1" parent="FOTAg63aiwvnKK2qQDpg-2">
          <mxGeometry y="156" width="213" height="26" as="geometry" />
        </mxCell>
        <mxCell id="WxJLq1IWkGxh-6cS0ORL-14" value="- email: String" style="text;strokeColor=none;fillColor=none;align=left;verticalAlign=top;spacingLeft=4;spacingRight=4;overflow=hidden;rotatable=0;points=[[0,0.5],[1,0.5]];portConstraint=eastwest;rounded=0;sketch=0;fontColor=#1D3557;" vertex="1" parent="FOTAg63aiwvnKK2qQDpg-2">
          <mxGeometry y="182" width="213" height="26" as="geometry" />
        </mxCell>
        <mxCell id="WxJLq1IWkGxh-6cS0ORL-8" style="edgeStyle=orthogonalEdgeStyle;rounded=0;orthogonalLoop=1;jettySize=auto;html=1;exitX=0.5;exitY=1;exitDx=0;exitDy=0;endArrow=none;endFill=0;" edge="1" parent="1" source="WxJLq1IWkGxh-6cS0ORL-1" target="_FMP9bh4VDa1splXeq67-17">
          <mxGeometry relative="1" as="geometry" />
        </mxCell>
        <object label="CommandeClient" id="WxJLq1IWkGxh-6cS0ORL-1">
          <mxCell style="swimlane;fontStyle=0;align=center;verticalAlign=top;childLayout=stackLayout;horizontal=1;startSize=26;horizontalStack=0;resizeParent=1;resizeLast=0;collapsible=1;marginBottom=0;rounded=1;shadow=0;strokeWidth=1;fillColor=#A8DADC;strokeColor=#457B9D;fontColor=#1D3557;" vertex="1" parent="1">
            <mxGeometry x="2840" y="-280" width="210" height="216" as="geometry">
              <mxRectangle x="2240" y="50" width="160" height="26" as="alternateBounds" />
            </mxGeometry>
          </mxCell>
        </object>
        <mxCell id="WxJLq1IWkGxh-6cS0ORL-2" value="- id: String" style="text;strokeColor=none;fillColor=none;align=left;verticalAlign=top;spacingLeft=4;spacingRight=4;overflow=hidden;rotatable=0;points=[[0,0.5],[1,0.5]];portConstraint=eastwest;rounded=0;sketch=0;fontColor=#1D3557;" vertex="1" parent="WxJLq1IWkGxh-6cS0ORL-1">
          <mxGeometry y="26" width="210" height="26" as="geometry" />
        </mxCell>
        <mxCell id="WxJLq1IWkGxh-6cS0ORL-3" value="- typeCmd: String" style="text;strokeColor=none;fillColor=none;align=left;verticalAlign=top;spacingLeft=4;spacingRight=4;overflow=hidden;rotatable=0;points=[[0,0.5],[1,0.5]];portConstraint=eastwest;rounded=0;sketch=0;fontColor=#1D3557;" vertex="1" parent="WxJLq1IWkGxh-6cS0ORL-1">
          <mxGeometry y="52" width="210" height="26" as="geometry" />
        </mxCell>
        <mxCell id="WxJLq1IWkGxh-6cS0ORL-4" value="- numCmd: String" style="text;strokeColor=none;fillColor=none;align=left;verticalAlign=top;spacingLeft=4;spacingRight=4;overflow=hidden;rotatable=0;points=[[0,0.5],[1,0.5]];portConstraint=eastwest;rounded=0;sketch=0;fontColor=#1D3557;" vertex="1" parent="WxJLq1IWkGxh-6cS0ORL-1">
          <mxGeometry y="78" width="210" height="26" as="geometry" />
        </mxCell>
        <mxCell id="WxJLq1IWkGxh-6cS0ORL-5" value="- etat: String" style="text;strokeColor=none;fillColor=none;align=left;verticalAlign=top;spacingLeft=4;spacingRight=4;overflow=hidden;rotatable=0;points=[[0,0.5],[1,0.5]];portConstraint=eastwest;rounded=0;sketch=0;fontColor=#1D3557;" vertex="1" parent="WxJLq1IWkGxh-6cS0ORL-1">
          <mxGeometry y="104" width="210" height="26" as="geometry" />
        </mxCell>
        <mxCell id="WxJLq1IWkGxh-6cS0ORL-6" value="- dateCmd: Date" style="text;strokeColor=none;fillColor=none;align=left;verticalAlign=top;spacingLeft=4;spacingRight=4;overflow=hidden;rotatable=0;points=[[0,0.5],[1,0.5]];portConstraint=eastwest;rounded=0;sketch=0;fontColor=#1D3557;" vertex="1" parent="WxJLq1IWkGxh-6cS0ORL-1">
          <mxGeometry y="130" width="210" height="26" as="geometry" />
        </mxCell>
        <mxCell id="WxJLq1IWkGxh-6cS0ORL-7" value="- dateCreationCmd: Date" style="text;strokeColor=none;fillColor=none;align=left;verticalAlign=top;spacingLeft=4;spacingRight=4;overflow=hidden;rotatable=0;points=[[0,0.5],[1,0.5]];portConstraint=eastwest;rounded=0;sketch=0;fontColor=#1D3557;" vertex="1" parent="WxJLq1IWkGxh-6cS0ORL-1">
          <mxGeometry y="156" width="210" height="26" as="geometry" />
        </mxCell>
      </root>
    </mxGraphModel>
  </diagram>
  <diagram id="ksBtarZMOf6qDqJGz85C" name="Page-2">
    <mxGraphModel dx="1422" dy="3202" grid="1" gridSize="10" guides="1" tooltips="1" connect="1" arrows="1" fold="1" page="1" pageScale="1" pageWidth="1920" pageHeight="1200" math="0" shadow="0">
      <root>
        <mxCell id="0" />
        <mxCell id="1" parent="0" />
        <mxCell id="2fcEDWTHMLcBKndWBy0k-1" value="Personnel" style="swimlane;fontStyle=0;align=center;verticalAlign=top;childLayout=stackLayout;horizontal=1;startSize=26;horizontalStack=0;resizeParent=1;resizeLast=0;collapsible=1;marginBottom=0;rounded=1;shadow=0;strokeWidth=1;fillColor=#A8DADC;strokeColor=#457B9D;fontColor=#1D3557;" parent="1" vertex="1">
          <mxGeometry x="1977" y="-192" width="168" height="411" as="geometry">
            <mxRectangle x="130" y="380" width="160" height="26" as="alternateBounds" />
          </mxGeometry>
        </mxCell>
        <mxCell id="2fcEDWTHMLcBKndWBy0k-2" value="- id: String" style="text;strokeColor=none;fillColor=none;align=left;verticalAlign=top;spacingLeft=4;spacingRight=4;overflow=hidden;rotatable=0;points=[[0,0.5],[1,0.5]];portConstraint=eastwest;rounded=0;sketch=0;fontColor=#1D3557;" parent="2fcEDWTHMLcBKndWBy0k-1" vertex="1">
          <mxGeometry y="26" width="168" height="26" as="geometry" />
        </mxCell>
        <mxCell id="2fcEDWTHMLcBKndWBy0k-3" value="- cin: String" style="text;strokeColor=none;fillColor=none;align=left;verticalAlign=top;spacingLeft=4;spacingRight=4;overflow=hidden;rotatable=0;points=[[0,0.5],[1,0.5]];portConstraint=eastwest;rounded=0;sketch=0;fontColor=#1D3557;" parent="2fcEDWTHMLcBKndWBy0k-1" vertex="1">
          <mxGeometry y="52" width="168" height="26" as="geometry" />
        </mxCell>
        <mxCell id="2fcEDWTHMLcBKndWBy0k-4" value="- nom: String" style="text;strokeColor=none;fillColor=none;align=left;verticalAlign=top;spacingLeft=4;spacingRight=4;overflow=hidden;rotatable=0;points=[[0,0.5],[1,0.5]];portConstraint=eastwest;rounded=0;sketch=0;fontColor=#1D3557;" parent="2fcEDWTHMLcBKndWBy0k-1" vertex="1">
          <mxGeometry y="78" width="168" height="26" as="geometry" />
        </mxCell>
        <mxCell id="2fcEDWTHMLcBKndWBy0k-5" value="- prenom: String" style="text;strokeColor=none;fillColor=none;align=left;verticalAlign=top;spacingLeft=4;spacingRight=4;overflow=hidden;rotatable=0;points=[[0,0.5],[1,0.5]];portConstraint=eastwest;rounded=0;sketch=0;fontColor=#1D3557;" parent="2fcEDWTHMLcBKndWBy0k-1" vertex="1">
          <mxGeometry y="104" width="168" height="26" as="geometry" />
        </mxCell>
        <mxCell id="2fcEDWTHMLcBKndWBy0k-6" value="- sexe: String" style="text;strokeColor=none;fillColor=none;align=left;verticalAlign=top;spacingLeft=4;spacingRight=4;overflow=hidden;rotatable=0;points=[[0,0.5],[1,0.5]];portConstraint=eastwest;rounded=0;sketch=0;fontColor=#1D3557;" parent="2fcEDWTHMLcBKndWBy0k-1" vertex="1">
          <mxGeometry y="130" width="168" height="26" as="geometry" />
        </mxCell>
        <mxCell id="2fcEDWTHMLcBKndWBy0k-7" value="- dateDeNaissance: Date" style="text;strokeColor=none;fillColor=none;align=left;verticalAlign=top;spacingLeft=4;spacingRight=4;overflow=hidden;rotatable=0;points=[[0,0.5],[1,0.5]];portConstraint=eastwest;rounded=0;sketch=0;fontColor=#1D3557;" parent="2fcEDWTHMLcBKndWBy0k-1" vertex="1">
          <mxGeometry y="156" width="168" height="26" as="geometry" />
        </mxCell>
        <mxCell id="2fcEDWTHMLcBKndWBy0k-8" value="- adresse: String" style="text;strokeColor=none;fillColor=none;align=left;verticalAlign=top;spacingLeft=4;spacingRight=4;overflow=hidden;rotatable=0;points=[[0,0.5],[1,0.5]];portConstraint=eastwest;rounded=0;sketch=0;fontColor=#1D3557;" parent="2fcEDWTHMLcBKndWBy0k-1" vertex="1">
          <mxGeometry y="182" width="168" height="26" as="geometry" />
        </mxCell>
        <mxCell id="2fcEDWTHMLcBKndWBy0k-9" value="- rib: Date" style="text;strokeColor=none;fillColor=none;align=left;verticalAlign=top;spacingLeft=4;spacingRight=4;overflow=hidden;rotatable=0;points=[[0,0.5],[1,0.5]];portConstraint=eastwest;rounded=0;sketch=0;fontColor=#1D3557;" parent="2fcEDWTHMLcBKndWBy0k-1" vertex="1">
          <mxGeometry y="208" width="168" height="26" as="geometry" />
        </mxCell>
        <mxCell id="2fcEDWTHMLcBKndWBy0k-10" value="- poste: String" style="text;strokeColor=none;fillColor=none;align=left;verticalAlign=top;spacingLeft=4;spacingRight=4;overflow=hidden;rotatable=0;points=[[0,0.5],[1,0.5]];portConstraint=eastwest;rounded=0;sketch=0;fontColor=#1D3557;" parent="2fcEDWTHMLcBKndWBy0k-1" vertex="1">
          <mxGeometry y="234" width="168" height="26" as="geometry" />
        </mxCell>
        <mxCell id="2fcEDWTHMLcBKndWBy0k-11" value="- dateDeEmbauche: Date" style="text;strokeColor=none;fillColor=none;align=left;verticalAlign=top;spacingLeft=4;spacingRight=4;overflow=hidden;rotatable=0;points=[[0,0.5],[1,0.5]];portConstraint=eastwest;rounded=0;sketch=0;fontColor=#1D3557;" parent="2fcEDWTHMLcBKndWBy0k-1" vertex="1">
          <mxGeometry y="260" width="168" height="26" as="geometry" />
        </mxCell>
        <mxCell id="2fcEDWTHMLcBKndWBy0k-12" value="- echelon: String" style="text;strokeColor=none;fillColor=none;align=left;verticalAlign=top;spacingLeft=4;spacingRight=4;overflow=hidden;rotatable=0;points=[[0,0.5],[1,0.5]];portConstraint=eastwest;rounded=0;sketch=0;fontColor=#1D3557;" parent="2fcEDWTHMLcBKndWBy0k-1" vertex="1">
          <mxGeometry y="286" width="168" height="26" as="geometry" />
        </mxCell>
        <mxCell id="2fcEDWTHMLcBKndWBy0k-13" value="- categorie: String" style="text;strokeColor=none;fillColor=none;align=left;verticalAlign=top;spacingLeft=4;spacingRight=4;overflow=hidden;rotatable=0;points=[[0,0.5],[1,0.5]];portConstraint=eastwest;rounded=0;sketch=0;fontColor=#1D3557;" parent="2fcEDWTHMLcBKndWBy0k-1" vertex="1">
          <mxGeometry y="312" width="168" height="26" as="geometry" />
        </mxCell>
        <mxCell id="2fcEDWTHMLcBKndWBy0k-14" style="edgeStyle=orthogonalEdgeStyle;rounded=0;orthogonalLoop=1;jettySize=auto;html=1;exitX=0.5;exitY=1;exitDx=0;exitDy=0;" parent="1" source="2fcEDWTHMLcBKndWBy0k-15" target="2fcEDWTHMLcBKndWBy0k-69" edge="1">
          <mxGeometry relative="1" as="geometry">
            <Array as="points">
              <mxPoint x="2133" y="-924" />
              <mxPoint x="2133" y="-891" />
              <mxPoint x="2136" y="-891" />
            </Array>
          </mxGeometry>
        </mxCell>
        <object label="Utilisateur" id="2fcEDWTHMLcBKndWBy0k-15">
          <mxCell style="swimlane;fontStyle=0;align=center;verticalAlign=top;childLayout=stackLayout;horizontal=1;startSize=26;horizontalStack=0;resizeParent=1;resizeLast=0;collapsible=1;marginBottom=0;rounded=1;shadow=0;strokeWidth=1;fillColor=#A8DADC;strokeColor=#457B9D;fontColor=#1D3557;" parent="1" vertex="1">
            <mxGeometry x="2013" y="-1092" width="234" height="168" as="geometry">
              <mxRectangle x="2240" y="50" width="160" height="26" as="alternateBounds" />
            </mxGeometry>
          </mxCell>
        </object>
        <mxCell id="2fcEDWTHMLcBKndWBy0k-16" value="- id: String" style="text;strokeColor=none;fillColor=none;align=left;verticalAlign=top;spacingLeft=4;spacingRight=4;overflow=hidden;rotatable=0;points=[[0,0.5],[1,0.5]];portConstraint=eastwest;rounded=0;sketch=0;fontColor=#1D3557;" parent="2fcEDWTHMLcBKndWBy0k-15" vertex="1">
          <mxGeometry y="26" width="234" height="26" as="geometry" />
        </mxCell>
        <mxCell id="2fcEDWTHMLcBKndWBy0k-17" value="- identifiant: String" style="text;strokeColor=none;fillColor=none;align=left;verticalAlign=top;spacingLeft=4;spacingRight=4;overflow=hidden;rotatable=0;points=[[0,0.5],[1,0.5]];portConstraint=eastwest;rounded=0;sketch=0;fontColor=#1D3557;" parent="2fcEDWTHMLcBKndWBy0k-15" vertex="1">
          <mxGeometry y="52" width="234" height="26" as="geometry" />
        </mxCell>
        <mxCell id="2fcEDWTHMLcBKndWBy0k-18" value="- motDePasse: String" style="text;strokeColor=none;fillColor=none;align=left;verticalAlign=top;spacingLeft=4;spacingRight=4;overflow=hidden;rotatable=0;points=[[0,0.5],[1,0.5]];portConstraint=eastwest;rounded=0;sketch=0;fontColor=#1D3557;" parent="2fcEDWTHMLcBKndWBy0k-15" vertex="1">
          <mxGeometry y="78" width="234" height="26" as="geometry" />
        </mxCell>
        <mxCell id="2fcEDWTHMLcBKndWBy0k-19" value="- role: String" style="text;strokeColor=none;fillColor=none;align=left;verticalAlign=top;spacingLeft=4;spacingRight=4;overflow=hidden;rotatable=0;points=[[0,0.5],[1,0.5]];portConstraint=eastwest;rounded=0;sketch=0;fontColor=#1D3557;" parent="2fcEDWTHMLcBKndWBy0k-15" vertex="1">
          <mxGeometry y="104" width="234" height="26" as="geometry" />
        </mxCell>
        <mxCell id="2fcEDWTHMLcBKndWBy0k-20" style="edgeStyle=orthogonalEdgeStyle;rounded=0;orthogonalLoop=1;jettySize=auto;html=1;exitX=0.5;exitY=0;exitDx=0;exitDy=0;" parent="1" source="2fcEDWTHMLcBKndWBy0k-21" edge="1">
          <mxGeometry relative="1" as="geometry">
            <mxPoint x="2427" y="-1095" as="targetPoint" />
          </mxGeometry>
        </mxCell>
        <object label="Article" id="2fcEDWTHMLcBKndWBy0k-21">
          <mxCell style="swimlane;fontStyle=0;align=center;verticalAlign=top;childLayout=stackLayout;horizontal=1;startSize=26;horizontalStack=0;resizeParent=1;resizeLast=0;collapsible=1;marginBottom=0;rounded=1;shadow=0;strokeWidth=1;fillColor=#A8DADC;strokeColor=#457B9D;fontColor=#1D3557;" parent="1" vertex="1">
            <mxGeometry x="2376" y="-1007" width="213" height="272" as="geometry">
              <mxRectangle x="2240" y="50" width="160" height="26" as="alternateBounds" />
            </mxGeometry>
          </mxCell>
        </object>
        <mxCell id="2fcEDWTHMLcBKndWBy0k-22" value="- id: String" style="text;strokeColor=none;fillColor=none;align=left;verticalAlign=top;spacingLeft=4;spacingRight=4;overflow=hidden;rotatable=0;points=[[0,0.5],[1,0.5]];portConstraint=eastwest;rounded=0;sketch=0;fontColor=#1D3557;" parent="2fcEDWTHMLcBKndWBy0k-21" vertex="1">
          <mxGeometry y="26" width="213" height="26" as="geometry" />
        </mxCell>
        <mxCell id="2fcEDWTHMLcBKndWBy0k-23" value="- referenceIris: String" style="text;strokeColor=none;fillColor=none;align=left;verticalAlign=top;spacingLeft=4;spacingRight=4;overflow=hidden;rotatable=0;points=[[0,0.5],[1,0.5]];portConstraint=eastwest;rounded=0;sketch=0;fontColor=#1D3557;" parent="2fcEDWTHMLcBKndWBy0k-21" vertex="1">
          <mxGeometry y="52" width="213" height="26" as="geometry" />
        </mxCell>
        <mxCell id="2fcEDWTHMLcBKndWBy0k-24" value="- referenceClient: String" style="text;strokeColor=none;fillColor=none;align=left;verticalAlign=top;spacingLeft=4;spacingRight=4;overflow=hidden;rotatable=0;points=[[0,0.5],[1,0.5]];portConstraint=eastwest;rounded=0;sketch=0;fontColor=#1D3557;" parent="2fcEDWTHMLcBKndWBy0k-21" vertex="1">
          <mxGeometry y="78" width="213" height="26" as="geometry" />
        </mxCell>
        <mxCell id="2fcEDWTHMLcBKndWBy0k-25" value="- Image: double" style="text;strokeColor=none;fillColor=none;align=left;verticalAlign=top;spacingLeft=4;spacingRight=4;overflow=hidden;rotatable=0;points=[[0,0.5],[1,0.5]];portConstraint=eastwest;rounded=0;sketch=0;fontColor=#1D3557;" parent="2fcEDWTHMLcBKndWBy0k-21" vertex="1">
          <mxGeometry y="104" width="213" height="26" as="geometry" />
        </mxCell>
        <mxCell id="2fcEDWTHMLcBKndWBy0k-26" value="- tauxTva: double" style="text;strokeColor=none;fillColor=none;align=left;verticalAlign=top;spacingLeft=4;spacingRight=4;overflow=hidden;rotatable=0;points=[[0,0.5],[1,0.5]];portConstraint=eastwest;rounded=0;sketch=0;fontColor=#1D3557;" parent="2fcEDWTHMLcBKndWBy0k-21" vertex="1">
          <mxGeometry y="130" width="213" height="26" as="geometry" />
        </mxCell>
        <mxCell id="2fcEDWTHMLcBKndWBy0k-27" value="- prixUnitaireTtc: double" style="text;strokeColor=none;fillColor=none;align=left;verticalAlign=top;spacingLeft=4;spacingRight=4;overflow=hidden;rotatable=0;points=[[0,0.5],[1,0.5]];portConstraint=eastwest;rounded=0;sketch=0;fontColor=#1D3557;" parent="2fcEDWTHMLcBKndWBy0k-21" vertex="1">
          <mxGeometry y="156" width="213" height="26" as="geometry" />
        </mxCell>
        <object label="Client" id="2fcEDWTHMLcBKndWBy0k-28">
          <mxCell style="swimlane;fontStyle=0;align=center;verticalAlign=top;childLayout=stackLayout;horizontal=1;startSize=26;horizontalStack=0;resizeParent=1;resizeLast=0;collapsible=1;marginBottom=0;rounded=1;shadow=0;strokeWidth=1;fillColor=#A8DADC;strokeColor=#457B9D;fontColor=#1D3557;" parent="1" vertex="1">
            <mxGeometry x="2388" y="-572" width="186" height="501" as="geometry">
              <mxRectangle x="2240" y="50" width="160" height="26" as="alternateBounds" />
            </mxGeometry>
          </mxCell>
        </object>
        <mxCell id="2fcEDWTHMLcBKndWBy0k-29" value="- id: String" style="text;strokeColor=none;fillColor=none;align=left;verticalAlign=top;spacingLeft=4;spacingRight=4;overflow=hidden;rotatable=0;points=[[0,0.5],[1,0.5]];portConstraint=eastwest;rounded=0;sketch=0;fontColor=#1D3557;" parent="2fcEDWTHMLcBKndWBy0k-28" vertex="1">
          <mxGeometry y="26" width="186" height="26" as="geometry" />
        </mxCell>
        <mxCell id="2fcEDWTHMLcBKndWBy0k-30" value="- date: Date" style="text;strokeColor=none;fillColor=none;align=left;verticalAlign=top;spacingLeft=4;spacingRight=4;overflow=hidden;rotatable=0;points=[[0,0.5],[1,0.5]];portConstraint=eastwest;rounded=0;sketch=0;fontColor=#1D3557;" parent="2fcEDWTHMLcBKndWBy0k-28" vertex="1">
          <mxGeometry y="52" width="186" height="26" as="geometry" />
        </mxCell>
        <mxCell id="2fcEDWTHMLcBKndWBy0k-31" value="- raisonSocial: String" style="text;strokeColor=none;fillColor=none;align=left;verticalAlign=top;spacingLeft=4;spacingRight=4;overflow=hidden;rotatable=0;points=[[0,0.5],[1,0.5]];portConstraint=eastwest;rounded=0;sketch=0;fontColor=#1D3557;" parent="2fcEDWTHMLcBKndWBy0k-28" vertex="1">
          <mxGeometry y="78" width="186" height="26" as="geometry" />
        </mxCell>
        <mxCell id="2fcEDWTHMLcBKndWBy0k-32" value="- regime: String" style="text;strokeColor=none;fillColor=none;align=left;verticalAlign=top;spacingLeft=4;spacingRight=4;overflow=hidden;rotatable=0;points=[[0,0.5],[1,0.5]];portConstraint=eastwest;rounded=0;sketch=0;fontColor=#1D3557;" parent="2fcEDWTHMLcBKndWBy0k-28" vertex="1">
          <mxGeometry y="104" width="186" height="26" as="geometry" />
        </mxCell>
        <mxCell id="2fcEDWTHMLcBKndWBy0k-33" value="- secteurActivite: String" style="text;strokeColor=none;fillColor=none;align=left;verticalAlign=top;spacingLeft=4;spacingRight=4;overflow=hidden;rotatable=0;points=[[0,0.5],[1,0.5]];portConstraint=eastwest;rounded=0;sketch=0;fontColor=#1D3557;" parent="2fcEDWTHMLcBKndWBy0k-28" vertex="1">
          <mxGeometry y="130" width="186" height="26" as="geometry" />
        </mxCell>
        <mxCell id="2fcEDWTHMLcBKndWBy0k-34" value="- brancheActivite: String" style="text;strokeColor=none;fillColor=none;align=left;verticalAlign=top;spacingLeft=4;spacingRight=4;overflow=hidden;rotatable=0;points=[[0,0.5],[1,0.5]];portConstraint=eastwest;rounded=0;sketch=0;fontColor=#1D3557;" parent="2fcEDWTHMLcBKndWBy0k-28" vertex="1">
          <mxGeometry y="156" width="186" height="26" as="geometry" />
        </mxCell>
        <mxCell id="2fcEDWTHMLcBKndWBy0k-35" value="- adresseFacturation: String" style="text;strokeColor=none;fillColor=none;align=left;verticalAlign=top;spacingLeft=4;spacingRight=4;overflow=hidden;rotatable=0;points=[[0,0.5],[1,0.5]];portConstraint=eastwest;rounded=0;sketch=0;fontColor=#1D3557;" parent="2fcEDWTHMLcBKndWBy0k-28" vertex="1">
          <mxGeometry y="182" width="186" height="26" as="geometry" />
        </mxCell>
        <mxCell id="2fcEDWTHMLcBKndWBy0k-36" value="- adresseLivraison: String" style="text;strokeColor=none;fillColor=none;align=left;verticalAlign=top;spacingLeft=4;spacingRight=4;overflow=hidden;rotatable=0;points=[[0,0.5],[1,0.5]];portConstraint=eastwest;rounded=0;sketch=0;fontColor=#1D3557;" parent="2fcEDWTHMLcBKndWBy0k-28" vertex="1">
          <mxGeometry y="208" width="186" height="26" as="geometry" />
        </mxCell>
        <mxCell id="2fcEDWTHMLcBKndWBy0k-37" value="- incoterm: String" style="text;strokeColor=none;fillColor=none;align=left;verticalAlign=top;spacingLeft=4;spacingRight=4;overflow=hidden;rotatable=0;points=[[0,0.5],[1,0.5]];portConstraint=eastwest;rounded=0;sketch=0;fontColor=#1D3557;" parent="2fcEDWTHMLcBKndWBy0k-28" vertex="1">
          <mxGeometry y="234" width="186" height="26" as="geometry" />
        </mxCell>
        <mxCell id="2fcEDWTHMLcBKndWBy0k-38" value="- echeance: String" style="text;strokeColor=none;fillColor=none;align=left;verticalAlign=top;spacingLeft=4;spacingRight=4;overflow=hidden;rotatable=0;points=[[0,0.5],[1,0.5]];portConstraint=eastwest;rounded=0;sketch=0;fontColor=#1D3557;" parent="2fcEDWTHMLcBKndWBy0k-28" vertex="1">
          <mxGeometry y="260" width="186" height="26" as="geometry" />
        </mxCell>
        <mxCell id="2fcEDWTHMLcBKndWBy0k-39" value="- modePaiement: String" style="text;strokeColor=none;fillColor=none;align=left;verticalAlign=top;spacingLeft=4;spacingRight=4;overflow=hidden;rotatable=0;points=[[0,0.5],[1,0.5]];portConstraint=eastwest;rounded=0;sketch=0;fontColor=#1D3557;" parent="2fcEDWTHMLcBKndWBy0k-28" vertex="1">
          <mxGeometry y="286" width="186" height="26" as="geometry" />
        </mxCell>
        <mxCell id="2fcEDWTHMLcBKndWBy0k-40" value="- nomBanque: String" style="text;strokeColor=none;fillColor=none;align=left;verticalAlign=top;spacingLeft=4;spacingRight=4;overflow=hidden;rotatable=0;points=[[0,0.5],[1,0.5]];portConstraint=eastwest;rounded=0;sketch=0;fontColor=#1D3557;" parent="2fcEDWTHMLcBKndWBy0k-28" vertex="1">
          <mxGeometry y="312" width="186" height="26" as="geometry" />
        </mxCell>
        <mxCell id="2fcEDWTHMLcBKndWBy0k-41" value="- adresseBanque: String" style="text;strokeColor=none;fillColor=none;align=left;verticalAlign=top;spacingLeft=4;spacingRight=4;overflow=hidden;rotatable=0;points=[[0,0.5],[1,0.5]];portConstraint=eastwest;rounded=0;sketch=0;fontColor=#1D3557;" parent="2fcEDWTHMLcBKndWBy0k-28" vertex="1">
          <mxGeometry y="338" width="186" height="26" as="geometry" />
        </mxCell>
        <mxCell id="2fcEDWTHMLcBKndWBy0k-42" value="- rib: String" style="text;strokeColor=none;fillColor=none;align=left;verticalAlign=top;spacingLeft=4;spacingRight=4;overflow=hidden;rotatable=0;points=[[0,0.5],[1,0.5]];portConstraint=eastwest;rounded=0;sketch=0;fontColor=#1D3557;" parent="2fcEDWTHMLcBKndWBy0k-28" vertex="1">
          <mxGeometry y="364" width="186" height="26" as="geometry" />
        </mxCell>
        <mxCell id="2fcEDWTHMLcBKndWBy0k-43" value="- swift: String" style="text;strokeColor=none;fillColor=none;align=left;verticalAlign=top;spacingLeft=4;spacingRight=4;overflow=hidden;rotatable=0;points=[[0,0.5],[1,0.5]];portConstraint=eastwest;rounded=0;sketch=0;fontColor=#1D3557;" parent="2fcEDWTHMLcBKndWBy0k-28" vertex="1">
          <mxGeometry y="390" width="186" height="26" as="geometry" />
        </mxCell>
        <mxCell id="2fcEDWTHMLcBKndWBy0k-44" value="- blocage: int" style="text;strokeColor=none;fillColor=none;align=left;verticalAlign=top;spacingLeft=4;spacingRight=4;overflow=hidden;rotatable=0;points=[[0,0.5],[1,0.5]];portConstraint=eastwest;rounded=0;sketch=0;fontColor=#1D3557;" parent="2fcEDWTHMLcBKndWBy0k-28" vertex="1">
          <mxGeometry y="416" width="186" height="26" as="geometry" />
        </mxCell>
        <object label="Fournisseur" id="2fcEDWTHMLcBKndWBy0k-45">
          <mxCell style="swimlane;fontStyle=0;align=center;verticalAlign=top;childLayout=stackLayout;horizontal=1;startSize=26;horizontalStack=0;resizeParent=1;resizeLast=0;collapsible=1;marginBottom=0;rounded=1;shadow=0;strokeWidth=1;fillColor=#A8DADC;strokeColor=#457B9D;fontColor=#1D3557;" parent="1" vertex="1">
            <mxGeometry x="2232" y="-93" width="153" height="246" as="geometry">
              <mxRectangle x="2240" y="50" width="160" height="26" as="alternateBounds" />
            </mxGeometry>
          </mxCell>
        </object>
        <mxCell id="2fcEDWTHMLcBKndWBy0k-46" value="- id: String" style="text;strokeColor=none;fillColor=none;align=left;verticalAlign=top;spacingLeft=4;spacingRight=4;overflow=hidden;rotatable=0;points=[[0,0.5],[1,0.5]];portConstraint=eastwest;rounded=0;sketch=0;fontColor=#1D3557;" parent="2fcEDWTHMLcBKndWBy0k-45" vertex="1">
          <mxGeometry y="26" width="153" height="26" as="geometry" />
        </mxCell>
        <mxCell id="2fcEDWTHMLcBKndWBy0k-47" value="- date: Date" style="text;strokeColor=none;fillColor=none;align=left;verticalAlign=top;spacingLeft=4;spacingRight=4;overflow=hidden;rotatable=0;points=[[0,0.5],[1,0.5]];portConstraint=eastwest;rounded=0;sketch=0;fontColor=#1D3557;" parent="2fcEDWTHMLcBKndWBy0k-45" vertex="1">
          <mxGeometry y="52" width="153" height="26" as="geometry" />
        </mxCell>
        <mxCell id="2fcEDWTHMLcBKndWBy0k-48" value="- raisonSocial: String" style="text;strokeColor=none;fillColor=none;align=left;verticalAlign=top;spacingLeft=4;spacingRight=4;overflow=hidden;rotatable=0;points=[[0,0.5],[1,0.5]];portConstraint=eastwest;rounded=0;sketch=0;fontColor=#1D3557;" parent="2fcEDWTHMLcBKndWBy0k-45" vertex="1">
          <mxGeometry y="78" width="153" height="26" as="geometry" />
        </mxCell>
        <mxCell id="2fcEDWTHMLcBKndWBy0k-49" value="- adresse: String" style="text;strokeColor=none;fillColor=none;align=left;verticalAlign=top;spacingLeft=4;spacingRight=4;overflow=hidden;rotatable=0;points=[[0,0.5],[1,0.5]];portConstraint=eastwest;rounded=0;sketch=0;fontColor=#1D3557;" parent="2fcEDWTHMLcBKndWBy0k-45" vertex="1">
          <mxGeometry y="104" width="153" height="26" as="geometry" />
        </mxCell>
        <mxCell id="2fcEDWTHMLcBKndWBy0k-50" value="- modePaiement: String" style="text;strokeColor=none;fillColor=none;align=left;verticalAlign=top;spacingLeft=4;spacingRight=4;overflow=hidden;rotatable=0;points=[[0,0.5],[1,0.5]];portConstraint=eastwest;rounded=0;sketch=0;fontColor=#1D3557;" parent="2fcEDWTHMLcBKndWBy0k-45" vertex="1">
          <mxGeometry y="130" width="153" height="26" as="geometry" />
        </mxCell>
        <mxCell id="2fcEDWTHMLcBKndWBy0k-51" value="- email: String" style="text;strokeColor=none;fillColor=none;align=left;verticalAlign=top;spacingLeft=4;spacingRight=4;overflow=hidden;rotatable=0;points=[[0,0.5],[1,0.5]];portConstraint=eastwest;rounded=0;sketch=0;fontColor=#1D3557;" parent="2fcEDWTHMLcBKndWBy0k-45" vertex="1">
          <mxGeometry y="156" width="153" height="26" as="geometry" />
        </mxCell>
        <mxCell id="2fcEDWTHMLcBKndWBy0k-52" value="- numTel: String" style="text;strokeColor=none;fillColor=none;align=left;verticalAlign=top;spacingLeft=4;spacingRight=4;overflow=hidden;rotatable=0;points=[[0,0.5],[1,0.5]];portConstraint=eastwest;rounded=0;sketch=0;fontColor=#1D3557;" parent="2fcEDWTHMLcBKndWBy0k-45" vertex="1">
          <mxGeometry y="182" width="153" height="26" as="geometry" />
        </mxCell>
        <mxCell id="2fcEDWTHMLcBKndWBy0k-53" style="edgeStyle=orthogonalEdgeStyle;rounded=0;orthogonalLoop=1;jettySize=auto;html=1;exitX=0.5;exitY=0;exitDx=0;exitDy=0;entryX=0.5;entryY=1;entryDx=0;entryDy=0;" parent="1" source="2fcEDWTHMLcBKndWBy0k-54" target="2fcEDWTHMLcBKndWBy0k-81" edge="1">
          <mxGeometry relative="1" as="geometry" />
        </mxCell>
        <object label="CommandeClient" id="2fcEDWTHMLcBKndWBy0k-54">
          <mxCell style="swimlane;fontStyle=0;align=center;verticalAlign=top;childLayout=stackLayout;horizontal=1;startSize=26;horizontalStack=0;resizeParent=1;resizeLast=0;collapsible=1;marginBottom=0;rounded=1;shadow=0;strokeWidth=1;fillColor=#A8DADC;strokeColor=#457B9D;fontColor=#1D3557;" parent="1" vertex="1">
            <mxGeometry x="2689" y="-591" width="210" height="216" as="geometry">
              <mxRectangle x="2240" y="50" width="160" height="26" as="alternateBounds" />
            </mxGeometry>
          </mxCell>
        </object>
        <mxCell id="2fcEDWTHMLcBKndWBy0k-55" value="- id: String" style="text;strokeColor=none;fillColor=none;align=left;verticalAlign=top;spacingLeft=4;spacingRight=4;overflow=hidden;rotatable=0;points=[[0,0.5],[1,0.5]];portConstraint=eastwest;rounded=0;sketch=0;fontColor=#1D3557;" parent="2fcEDWTHMLcBKndWBy0k-54" vertex="1">
          <mxGeometry y="26" width="210" height="26" as="geometry" />
        </mxCell>
        <mxCell id="2fcEDWTHMLcBKndWBy0k-56" value="- typeCmd: String" style="text;strokeColor=none;fillColor=none;align=left;verticalAlign=top;spacingLeft=4;spacingRight=4;overflow=hidden;rotatable=0;points=[[0,0.5],[1,0.5]];portConstraint=eastwest;rounded=0;sketch=0;fontColor=#1D3557;" parent="2fcEDWTHMLcBKndWBy0k-54" vertex="1">
          <mxGeometry y="52" width="210" height="26" as="geometry" />
        </mxCell>
        <mxCell id="2fcEDWTHMLcBKndWBy0k-57" value="- numCmd: String" style="text;strokeColor=none;fillColor=none;align=left;verticalAlign=top;spacingLeft=4;spacingRight=4;overflow=hidden;rotatable=0;points=[[0,0.5],[1,0.5]];portConstraint=eastwest;rounded=0;sketch=0;fontColor=#1D3557;" parent="2fcEDWTHMLcBKndWBy0k-54" vertex="1">
          <mxGeometry y="78" width="210" height="26" as="geometry" />
        </mxCell>
        <mxCell id="2fcEDWTHMLcBKndWBy0k-58" value="- etat: String" style="text;strokeColor=none;fillColor=none;align=left;verticalAlign=top;spacingLeft=4;spacingRight=4;overflow=hidden;rotatable=0;points=[[0,0.5],[1,0.5]];portConstraint=eastwest;rounded=0;sketch=0;fontColor=#1D3557;" parent="2fcEDWTHMLcBKndWBy0k-54" vertex="1">
          <mxGeometry y="104" width="210" height="26" as="geometry" />
        </mxCell>
        <mxCell id="2fcEDWTHMLcBKndWBy0k-59" value="- dateCmd: Date" style="text;strokeColor=none;fillColor=none;align=left;verticalAlign=top;spacingLeft=4;spacingRight=4;overflow=hidden;rotatable=0;points=[[0,0.5],[1,0.5]];portConstraint=eastwest;rounded=0;sketch=0;fontColor=#1D3557;" parent="2fcEDWTHMLcBKndWBy0k-54" vertex="1">
          <mxGeometry y="130" width="210" height="26" as="geometry" />
        </mxCell>
        <mxCell id="2fcEDWTHMLcBKndWBy0k-60" value="- dateCreationCmd: Date" style="text;strokeColor=none;fillColor=none;align=left;verticalAlign=top;spacingLeft=4;spacingRight=4;overflow=hidden;rotatable=0;points=[[0,0.5],[1,0.5]];portConstraint=eastwest;rounded=0;sketch=0;fontColor=#1D3557;" parent="2fcEDWTHMLcBKndWBy0k-54" vertex="1">
          <mxGeometry y="156" width="210" height="26" as="geometry" />
        </mxCell>
        <mxCell id="2fcEDWTHMLcBKndWBy0k-61" style="edgeStyle=orthogonalEdgeStyle;rounded=0;orthogonalLoop=1;jettySize=auto;html=1;exitX=0.5;exitY=1;exitDx=0;exitDy=0;entryX=0.5;entryY=0;entryDx=0;entryDy=0;" parent="1" source="2fcEDWTHMLcBKndWBy0k-62" target="2fcEDWTHMLcBKndWBy0k-85" edge="1">
          <mxGeometry relative="1" as="geometry" />
        </mxCell>
        <object label="CommandeFournisseur" id="2fcEDWTHMLcBKndWBy0k-62">
          <mxCell style="swimlane;fontStyle=0;align=center;verticalAlign=top;childLayout=stackLayout;horizontal=1;startSize=26;horizontalStack=0;resizeParent=1;resizeLast=0;collapsible=1;marginBottom=0;rounded=1;shadow=0;strokeWidth=1;fillColor=#A8DADC;strokeColor=#457B9D;fontColor=#1D3557;" parent="1" vertex="1">
            <mxGeometry x="2469" y="-57" width="228" height="132" as="geometry">
              <mxRectangle x="2240" y="50" width="160" height="26" as="alternateBounds" />
            </mxGeometry>
          </mxCell>
        </object>
        <mxCell id="2fcEDWTHMLcBKndWBy0k-63" value="- id: String" style="text;strokeColor=none;fillColor=none;align=left;verticalAlign=top;spacingLeft=4;spacingRight=4;overflow=hidden;rotatable=0;points=[[0,0.5],[1,0.5]];portConstraint=eastwest;rounded=0;sketch=0;fontColor=#1D3557;" parent="2fcEDWTHMLcBKndWBy0k-62" vertex="1">
          <mxGeometry y="26" width="228" height="26" as="geometry" />
        </mxCell>
        <mxCell id="2fcEDWTHMLcBKndWBy0k-64" value="- code: String" style="text;strokeColor=none;fillColor=none;align=left;verticalAlign=top;spacingLeft=4;spacingRight=4;overflow=hidden;rotatable=0;points=[[0,0.5],[1,0.5]];portConstraint=eastwest;rounded=0;sketch=0;fontColor=#1D3557;" parent="2fcEDWTHMLcBKndWBy0k-62" vertex="1">
          <mxGeometry y="52" width="228" height="26" as="geometry" />
        </mxCell>
        <mxCell id="2fcEDWTHMLcBKndWBy0k-65" value="- dateCommande: Date" style="text;strokeColor=none;fillColor=none;align=left;verticalAlign=top;spacingLeft=4;spacingRight=4;overflow=hidden;rotatable=0;points=[[0,0.5],[1,0.5]];portConstraint=eastwest;rounded=0;sketch=0;fontColor=#1D3557;" parent="2fcEDWTHMLcBKndWBy0k-62" vertex="1">
          <mxGeometry y="78" width="228" height="26" as="geometry" />
        </mxCell>
        <mxCell id="2fcEDWTHMLcBKndWBy0k-66" style="edgeStyle=orthogonalEdgeStyle;rounded=0;orthogonalLoop=1;jettySize=auto;html=1;exitX=0.5;exitY=1;exitDx=0;exitDy=0;entryX=0.64;entryY=0.012;entryDx=0;entryDy=0;entryPerimeter=0;" parent="1" source="2fcEDWTHMLcBKndWBy0k-69" target="2fcEDWTHMLcBKndWBy0k-131" edge="1">
          <mxGeometry relative="1" as="geometry" />
        </mxCell>
        <mxCell id="2fcEDWTHMLcBKndWBy0k-67" value="1..1" style="edgeLabel;html=1;align=center;verticalAlign=middle;resizable=0;points=[];" parent="2fcEDWTHMLcBKndWBy0k-66" vertex="1" connectable="0">
          <mxGeometry x="-0.702" relative="1" as="geometry">
            <mxPoint as="offset" />
          </mxGeometry>
        </mxCell>
        <mxCell id="2fcEDWTHMLcBKndWBy0k-68" value="1..*" style="edgeLabel;html=1;align=center;verticalAlign=middle;resizable=0;points=[];" parent="2fcEDWTHMLcBKndWBy0k-66" vertex="1" connectable="0">
          <mxGeometry x="0.2448" y="-1" relative="1" as="geometry">
            <mxPoint as="offset" />
          </mxGeometry>
        </mxCell>
        <object label="Comptes" id="2fcEDWTHMLcBKndWBy0k-69">
          <mxCell style="swimlane;fontStyle=0;align=center;verticalAlign=top;childLayout=stackLayout;horizontal=1;startSize=26;horizontalStack=0;resizeParent=1;resizeLast=0;collapsible=1;marginBottom=0;rounded=1;shadow=0;strokeWidth=1;fillColor=#A8DADC;strokeColor=#457B9D;fontColor=#1D3557;" parent="1" vertex="1">
            <mxGeometry x="2037" y="-888" width="198" height="144" as="geometry">
              <mxRectangle x="2240" y="50" width="160" height="26" as="alternateBounds" />
            </mxGeometry>
          </mxCell>
        </object>
        <mxCell id="2fcEDWTHMLcBKndWBy0k-70" value="- id: String" style="text;strokeColor=none;fillColor=none;align=left;verticalAlign=top;spacingLeft=4;spacingRight=4;overflow=hidden;rotatable=0;points=[[0,0.5],[1,0.5]];portConstraint=eastwest;rounded=0;sketch=0;fontColor=#1D3557;" parent="2fcEDWTHMLcBKndWBy0k-69" vertex="1">
          <mxGeometry y="26" width="198" height="26" as="geometry" />
        </mxCell>
        <mxCell id="2fcEDWTHMLcBKndWBy0k-71" value="- raisonSocial: String" style="text;strokeColor=none;fillColor=none;align=left;verticalAlign=top;spacingLeft=4;spacingRight=4;overflow=hidden;rotatable=0;points=[[0,0.5],[1,0.5]];portConstraint=eastwest;rounded=0;sketch=0;fontColor=#1D3557;" parent="2fcEDWTHMLcBKndWBy0k-69" vertex="1">
          <mxGeometry y="52" width="198" height="26" as="geometry" />
        </mxCell>
        <mxCell id="2fcEDWTHMLcBKndWBy0k-72" value="- siren: String" style="text;strokeColor=none;fillColor=none;align=left;verticalAlign=top;spacingLeft=4;spacingRight=4;overflow=hidden;rotatable=0;points=[[0,0.5],[1,0.5]];portConstraint=eastwest;rounded=0;sketch=0;fontColor=#1D3557;" parent="2fcEDWTHMLcBKndWBy0k-69" vertex="1">
          <mxGeometry y="78" width="198" height="26" as="geometry" />
        </mxCell>
        <mxCell id="2fcEDWTHMLcBKndWBy0k-73" style="edgeStyle=orthogonalEdgeStyle;rounded=0;orthogonalLoop=1;jettySize=auto;html=1;exitX=0.5;exitY=1;exitDx=0;exitDy=0;entryX=0.5;entryY=0;entryDx=0;entryDy=0;" parent="1" source="2fcEDWTHMLcBKndWBy0k-131" target="2fcEDWTHMLcBKndWBy0k-1" edge="1">
          <mxGeometry relative="1" as="geometry" />
        </mxCell>
        <mxCell id="2fcEDWTHMLcBKndWBy0k-74" value="1..*" style="edgeLabel;html=1;align=center;verticalAlign=middle;resizable=0;points=[];" parent="2fcEDWTHMLcBKndWBy0k-73" vertex="1" connectable="0">
          <mxGeometry x="-0.7587" y="1" relative="1" as="geometry">
            <mxPoint as="offset" />
          </mxGeometry>
        </mxCell>
        <mxCell id="2fcEDWTHMLcBKndWBy0k-75" value="1..1" style="edgeLabel;html=1;align=center;verticalAlign=middle;resizable=0;points=[];" parent="2fcEDWTHMLcBKndWBy0k-73" vertex="1" connectable="0">
          <mxGeometry x="0.7276" y="1" relative="1" as="geometry">
            <mxPoint as="offset" />
          </mxGeometry>
        </mxCell>
        <mxCell id="2fcEDWTHMLcBKndWBy0k-76" style="edgeStyle=orthogonalEdgeStyle;rounded=0;orthogonalLoop=1;jettySize=auto;html=1;exitX=1;exitY=1;exitDx=0;exitDy=0;entryX=0.5;entryY=0;entryDx=0;entryDy=0;" parent="1" source="2fcEDWTHMLcBKndWBy0k-131" target="2fcEDWTHMLcBKndWBy0k-45" edge="1">
          <mxGeometry relative="1" as="geometry" />
        </mxCell>
        <object label="EtapeProduction" id="2fcEDWTHMLcBKndWBy0k-77">
          <mxCell style="swimlane;fontStyle=0;align=center;verticalAlign=top;childLayout=stackLayout;horizontal=1;startSize=26;horizontalStack=0;resizeParent=1;resizeLast=0;collapsible=1;marginBottom=0;rounded=1;shadow=0;strokeWidth=1;fillColor=#A8DADC;strokeColor=#457B9D;fontColor=#1D3557;" parent="1" vertex="1">
            <mxGeometry x="2328" y="-1230" width="168" height="132" as="geometry">
              <mxRectangle x="2240" y="50" width="160" height="26" as="alternateBounds" />
            </mxGeometry>
          </mxCell>
        </object>
        <mxCell id="2fcEDWTHMLcBKndWBy0k-78" value="- id: String" style="text;strokeColor=none;fillColor=none;align=left;verticalAlign=top;spacingLeft=4;spacingRight=4;overflow=hidden;rotatable=0;points=[[0,0.5],[1,0.5]];portConstraint=eastwest;rounded=0;sketch=0;fontColor=#1D3557;" parent="2fcEDWTHMLcBKndWBy0k-77" vertex="1">
          <mxGeometry y="26" width="168" height="26" as="geometry" />
        </mxCell>
        <mxCell id="2fcEDWTHMLcBKndWBy0k-79" value="- nomEtape: String" style="text;strokeColor=none;fillColor=none;align=left;verticalAlign=top;spacingLeft=4;spacingRight=4;overflow=hidden;rotatable=0;points=[[0,0.5],[1,0.5]];portConstraint=eastwest;rounded=0;sketch=0;fontColor=#1D3557;" parent="2fcEDWTHMLcBKndWBy0k-77" vertex="1">
          <mxGeometry y="52" width="168" height="26" as="geometry" />
        </mxCell>
        <mxCell id="2fcEDWTHMLcBKndWBy0k-80" value="- typeEtape: String" style="text;strokeColor=none;fillColor=none;align=left;verticalAlign=top;spacingLeft=4;spacingRight=4;overflow=hidden;rotatable=0;points=[[0,0.5],[1,0.5]];portConstraint=eastwest;rounded=0;sketch=0;fontColor=#1D3557;" parent="2fcEDWTHMLcBKndWBy0k-77" vertex="1">
          <mxGeometry y="78" width="168" height="26" as="geometry" />
        </mxCell>
        <object label="LigneCommandeClient" id="2fcEDWTHMLcBKndWBy0k-81">
          <mxCell style="swimlane;fontStyle=0;align=center;verticalAlign=top;childLayout=stackLayout;horizontal=1;startSize=26;horizontalStack=0;resizeParent=1;resizeLast=0;collapsible=1;marginBottom=0;rounded=1;shadow=0;strokeWidth=1;fillColor=#A8DADC;strokeColor=#457B9D;fontColor=#1D3557;" parent="1" vertex="1">
            <mxGeometry x="2706" y="-875" width="192" height="143" as="geometry">
              <mxRectangle x="2240" y="50" width="160" height="26" as="alternateBounds" />
            </mxGeometry>
          </mxCell>
        </object>
        <mxCell id="2fcEDWTHMLcBKndWBy0k-82" value="- id: String" style="text;strokeColor=none;fillColor=none;align=left;verticalAlign=top;spacingLeft=4;spacingRight=4;overflow=hidden;rotatable=0;points=[[0,0.5],[1,0.5]];portConstraint=eastwest;rounded=0;sketch=0;fontColor=#1D3557;" parent="2fcEDWTHMLcBKndWBy0k-81" vertex="1">
          <mxGeometry y="26" width="192" height="26" as="geometry" />
        </mxCell>
        <mxCell id="2fcEDWTHMLcBKndWBy0k-83" value="- quantite: Double" style="text;strokeColor=none;fillColor=none;align=left;verticalAlign=top;spacingLeft=4;spacingRight=4;overflow=hidden;rotatable=0;points=[[0,0.5],[1,0.5]];portConstraint=eastwest;rounded=0;sketch=0;fontColor=#1D3557;" parent="2fcEDWTHMLcBKndWBy0k-81" vertex="1">
          <mxGeometry y="52" width="192" height="26" as="geometry" />
        </mxCell>
        <mxCell id="2fcEDWTHMLcBKndWBy0k-84" value="- prixUnitaire: Double" style="text;strokeColor=none;fillColor=none;align=left;verticalAlign=top;spacingLeft=4;spacingRight=4;overflow=hidden;rotatable=0;points=[[0,0.5],[1,0.5]];portConstraint=eastwest;rounded=0;sketch=0;fontColor=#1D3557;" parent="2fcEDWTHMLcBKndWBy0k-81" vertex="1">
          <mxGeometry y="78" width="192" height="26" as="geometry" />
        </mxCell>
        <object label="LigneCommandeFournisseur" id="2fcEDWTHMLcBKndWBy0k-85">
          <mxCell style="swimlane;fontStyle=0;align=center;verticalAlign=top;childLayout=stackLayout;horizontal=1;startSize=26;horizontalStack=0;resizeParent=1;resizeLast=0;collapsible=1;marginBottom=0;rounded=1;shadow=0;strokeWidth=1;fillColor=#A8DADC;strokeColor=#457B9D;fontColor=#1D3557;" parent="1" vertex="1">
            <mxGeometry x="2460" y="183" width="246" height="138" as="geometry">
              <mxRectangle x="2240" y="50" width="160" height="26" as="alternateBounds" />
            </mxGeometry>
          </mxCell>
        </object>
        <mxCell id="2fcEDWTHMLcBKndWBy0k-86" value="- id: String" style="text;strokeColor=none;fillColor=none;align=left;verticalAlign=top;spacingLeft=4;spacingRight=4;overflow=hidden;rotatable=0;points=[[0,0.5],[1,0.5]];portConstraint=eastwest;rounded=0;sketch=0;fontColor=#1D3557;" parent="2fcEDWTHMLcBKndWBy0k-85" vertex="1">
          <mxGeometry y="26" width="246" height="26" as="geometry" />
        </mxCell>
        <mxCell id="2fcEDWTHMLcBKndWBy0k-87" value="- quantite: Double" style="text;strokeColor=none;fillColor=none;align=left;verticalAlign=top;spacingLeft=4;spacingRight=4;overflow=hidden;rotatable=0;points=[[0,0.5],[1,0.5]];portConstraint=eastwest;rounded=0;sketch=0;fontColor=#1D3557;" parent="2fcEDWTHMLcBKndWBy0k-85" vertex="1">
          <mxGeometry y="52" width="246" height="26" as="geometry" />
        </mxCell>
        <mxCell id="2fcEDWTHMLcBKndWBy0k-88" value="- prixUnitaire: Double" style="text;strokeColor=none;fillColor=none;align=left;verticalAlign=top;spacingLeft=4;spacingRight=4;overflow=hidden;rotatable=0;points=[[0,0.5],[1,0.5]];portConstraint=eastwest;rounded=0;sketch=0;fontColor=#1D3557;" parent="2fcEDWTHMLcBKndWBy0k-85" vertex="1">
          <mxGeometry y="78" width="246" height="26" as="geometry" />
        </mxCell>
        <mxCell id="2fcEDWTHMLcBKndWBy0k-89" style="edgeStyle=orthogonalEdgeStyle;rounded=0;orthogonalLoop=1;jettySize=auto;html=1;exitX=1;exitY=0.5;exitDx=0;exitDy=0;entryX=0;entryY=0.5;entryDx=0;entryDy=0;" parent="1" source="2fcEDWTHMLcBKndWBy0k-136" target="2fcEDWTHMLcBKndWBy0k-27" edge="1">
          <mxGeometry relative="1" as="geometry" />
        </mxCell>
        <mxCell id="2fcEDWTHMLcBKndWBy0k-90" value="1..*" style="edgeLabel;html=1;align=center;verticalAlign=middle;resizable=0;points=[];" parent="2fcEDWTHMLcBKndWBy0k-89" vertex="1" connectable="0">
          <mxGeometry x="-0.7844" relative="1" as="geometry">
            <mxPoint as="offset" />
          </mxGeometry>
        </mxCell>
        <mxCell id="2fcEDWTHMLcBKndWBy0k-91" value="1..1" style="edgeLabel;html=1;align=center;verticalAlign=middle;resizable=0;points=[];" parent="2fcEDWTHMLcBKndWBy0k-89" vertex="1" connectable="0">
          <mxGeometry x="0.7576" y="3" relative="1" as="geometry">
            <mxPoint x="-1" as="offset" />
          </mxGeometry>
        </mxCell>
        <mxCell id="2fcEDWTHMLcBKndWBy0k-92" style="edgeStyle=orthogonalEdgeStyle;rounded=0;orthogonalLoop=1;jettySize=auto;html=1;exitX=1;exitY=0.5;exitDx=0;exitDy=0;entryX=0;entryY=0.5;entryDx=0;entryDy=0;" parent="1" source="2fcEDWTHMLcBKndWBy0k-138" target="2fcEDWTHMLcBKndWBy0k-38" edge="1">
          <mxGeometry relative="1" as="geometry" />
        </mxCell>
        <mxCell id="2fcEDWTHMLcBKndWBy0k-93" value="1..*" style="edgeLabel;html=1;align=center;verticalAlign=middle;resizable=0;points=[];" parent="2fcEDWTHMLcBKndWBy0k-92" vertex="1" connectable="0">
          <mxGeometry x="-0.8447" y="-3" relative="1" as="geometry">
            <mxPoint as="offset" />
          </mxGeometry>
        </mxCell>
        <mxCell id="2fcEDWTHMLcBKndWBy0k-94" value="1..*" style="edgeLabel;html=1;align=center;verticalAlign=middle;resizable=0;points=[];" parent="2fcEDWTHMLcBKndWBy0k-92" vertex="1" connectable="0">
          <mxGeometry x="0.7749" y="-4" relative="1" as="geometry">
            <mxPoint as="offset" />
          </mxGeometry>
        </mxCell>
        <mxCell id="2fcEDWTHMLcBKndWBy0k-95" style="edgeStyle=orthogonalEdgeStyle;rounded=0;orthogonalLoop=1;jettySize=auto;html=1;exitX=1;exitY=0.5;exitDx=0;exitDy=0;entryX=0.014;entryY=0.192;entryDx=0;entryDy=0;entryPerimeter=0;" parent="1" source="2fcEDWTHMLcBKndWBy0k-35" target="2fcEDWTHMLcBKndWBy0k-59" edge="1">
          <mxGeometry relative="1" as="geometry" />
        </mxCell>
        <mxCell id="2fcEDWTHMLcBKndWBy0k-96" value="1..*" style="edgeLabel;html=1;align=center;verticalAlign=middle;resizable=0;points=[];" parent="2fcEDWTHMLcBKndWBy0k-95" vertex="1" connectable="0">
          <mxGeometry x="-0.5619" y="1" relative="1" as="geometry">
            <mxPoint x="1" as="offset" />
          </mxGeometry>
        </mxCell>
        <mxCell id="2fcEDWTHMLcBKndWBy0k-97" value="1..1" style="edgeLabel;html=1;align=center;verticalAlign=middle;resizable=0;points=[];" parent="2fcEDWTHMLcBKndWBy0k-95" vertex="1" connectable="0">
          <mxGeometry x="0.7956" y="-4" relative="1" as="geometry">
            <mxPoint x="-5" as="offset" />
          </mxGeometry>
        </mxCell>
        <mxCell id="2fcEDWTHMLcBKndWBy0k-98" style="edgeStyle=orthogonalEdgeStyle;rounded=0;orthogonalLoop=1;jettySize=auto;html=1;exitX=1;exitY=0.5;exitDx=0;exitDy=0;entryX=0;entryY=0.5;entryDx=0;entryDy=0;" parent="1" target="2fcEDWTHMLcBKndWBy0k-84" edge="1">
          <mxGeometry relative="1" as="geometry">
            <mxPoint x="2589" y="-820" as="sourcePoint" />
          </mxGeometry>
        </mxCell>
        <mxCell id="2fcEDWTHMLcBKndWBy0k-99" value="1..1" style="edgeLabel;html=1;align=center;verticalAlign=middle;resizable=0;points=[];" parent="2fcEDWTHMLcBKndWBy0k-98" vertex="1" connectable="0">
          <mxGeometry x="0.5109" y="2" relative="1" as="geometry">
            <mxPoint as="offset" />
          </mxGeometry>
        </mxCell>
        <mxCell id="2fcEDWTHMLcBKndWBy0k-100" value="1..*" style="edgeLabel;html=1;align=center;verticalAlign=middle;resizable=0;points=[];" parent="2fcEDWTHMLcBKndWBy0k-98" vertex="1" connectable="0">
          <mxGeometry x="-0.4798" y="4" relative="1" as="geometry">
            <mxPoint x="-6" as="offset" />
          </mxGeometry>
        </mxCell>
        <mxCell id="2fcEDWTHMLcBKndWBy0k-101" style="edgeStyle=orthogonalEdgeStyle;rounded=0;orthogonalLoop=1;jettySize=auto;html=1;exitX=1;exitY=0.5;exitDx=0;exitDy=0;" parent="1" source="2fcEDWTHMLcBKndWBy0k-134" target="2fcEDWTHMLcBKndWBy0k-79" edge="1">
          <mxGeometry relative="1" as="geometry" />
        </mxCell>
        <mxCell id="2fcEDWTHMLcBKndWBy0k-102" style="edgeStyle=orthogonalEdgeStyle;rounded=0;orthogonalLoop=1;jettySize=auto;html=1;exitX=1;exitY=0.5;exitDx=0;exitDy=0;entryX=0;entryY=0.5;entryDx=0;entryDy=0;" parent="1" source="2fcEDWTHMLcBKndWBy0k-49" target="2fcEDWTHMLcBKndWBy0k-62" edge="1">
          <mxGeometry relative="1" as="geometry" />
        </mxCell>
        <mxCell id="2fcEDWTHMLcBKndWBy0k-103" style="edgeStyle=orthogonalEdgeStyle;rounded=0;orthogonalLoop=1;jettySize=auto;html=1;exitX=0.5;exitY=1;exitDx=0;exitDy=0;entryX=1.001;entryY=0.172;entryDx=0;entryDy=0;entryPerimeter=0;" parent="1" source="2fcEDWTHMLcBKndWBy0k-104" target="2fcEDWTHMLcBKndWBy0k-88" edge="1">
          <mxGeometry relative="1" as="geometry" />
        </mxCell>
        <object label="Matiere" id="2fcEDWTHMLcBKndWBy0k-104">
          <mxCell style="swimlane;fontStyle=0;align=center;verticalAlign=top;childLayout=stackLayout;horizontal=1;startSize=26;horizontalStack=0;resizeParent=1;resizeLast=0;collapsible=1;marginBottom=0;rounded=1;shadow=0;strokeWidth=1;fillColor=#A8DADC;strokeColor=#457B9D;fontColor=#1D3557;arcSize=12;" parent="1" vertex="1">
            <mxGeometry x="2748" y="-225" width="213" height="204" as="geometry">
              <mxRectangle x="2240" y="50" width="160" height="26" as="alternateBounds" />
            </mxGeometry>
          </mxCell>
        </object>
        <mxCell id="2fcEDWTHMLcBKndWBy0k-105" value="- id: String" style="text;strokeColor=none;fillColor=none;align=left;verticalAlign=top;spacingLeft=4;spacingRight=4;overflow=hidden;rotatable=0;points=[[0,0.5],[1,0.5]];portConstraint=eastwest;rounded=0;sketch=0;fontColor=#1D3557;" parent="2fcEDWTHMLcBKndWBy0k-104" vertex="1">
          <mxGeometry y="26" width="213" height="26" as="geometry" />
        </mxCell>
        <mxCell id="2fcEDWTHMLcBKndWBy0k-106" value="- codeMatiere: String" style="text;strokeColor=none;fillColor=none;align=left;verticalAlign=top;spacingLeft=4;spacingRight=4;overflow=hidden;rotatable=0;points=[[0,0.5],[1,0.5]];portConstraint=eastwest;rounded=0;sketch=0;fontColor=#1D3557;" parent="2fcEDWTHMLcBKndWBy0k-104" vertex="1">
          <mxGeometry y="52" width="213" height="26" as="geometry" />
        </mxCell>
        <mxCell id="2fcEDWTHMLcBKndWBy0k-107" value="- designation: String" style="text;strokeColor=none;fillColor=none;align=left;verticalAlign=top;spacingLeft=4;spacingRight=4;overflow=hidden;rotatable=0;points=[[0,0.5],[1,0.5]];portConstraint=eastwest;rounded=0;sketch=0;fontColor=#1D3557;" parent="2fcEDWTHMLcBKndWBy0k-104" vertex="1">
          <mxGeometry y="78" width="213" height="26" as="geometry" />
        </mxCell>
        <mxCell id="2fcEDWTHMLcBKndWBy0k-108" value="- prixUnitaireHt: Double" style="text;strokeColor=none;fillColor=none;align=left;verticalAlign=top;spacingLeft=4;spacingRight=4;overflow=hidden;rotatable=0;points=[[0,0.5],[1,0.5]];portConstraint=eastwest;rounded=0;sketch=0;fontColor=#1D3557;" parent="2fcEDWTHMLcBKndWBy0k-104" vertex="1">
          <mxGeometry y="104" width="213" height="26" as="geometry" />
        </mxCell>
        <mxCell id="2fcEDWTHMLcBKndWBy0k-109" value="- tauxTva: Double" style="text;strokeColor=none;fillColor=none;align=left;verticalAlign=top;spacingLeft=4;spacingRight=4;overflow=hidden;rotatable=0;points=[[0,0.5],[1,0.5]];portConstraint=eastwest;rounded=0;sketch=0;fontColor=#1D3557;" parent="2fcEDWTHMLcBKndWBy0k-104" vertex="1">
          <mxGeometry y="130" width="213" height="26" as="geometry" />
        </mxCell>
        <mxCell id="2fcEDWTHMLcBKndWBy0k-110" value="- prixUnitaireTtc: String" style="text;strokeColor=none;fillColor=none;align=left;verticalAlign=top;spacingLeft=4;spacingRight=4;overflow=hidden;rotatable=0;points=[[0,0.5],[1,0.5]];portConstraint=eastwest;rounded=0;sketch=0;fontColor=#1D3557;" parent="1" vertex="1">
          <mxGeometry x="2748" y="-66" width="243" height="26" as="geometry" />
        </mxCell>
        <object label="LigneVente" id="2fcEDWTHMLcBKndWBy0k-111">
          <mxCell style="swimlane;fontStyle=0;align=center;verticalAlign=top;childLayout=stackLayout;horizontal=1;startSize=26;horizontalStack=0;resizeParent=1;resizeLast=0;collapsible=1;marginBottom=0;rounded=1;shadow=0;strokeWidth=1;fillColor=#A8DADC;strokeColor=#457B9D;fontColor=#1D3557;" parent="1" vertex="1">
            <mxGeometry x="1716" y="-756" width="192" height="143" as="geometry">
              <mxRectangle x="2240" y="50" width="160" height="26" as="alternateBounds" />
            </mxGeometry>
          </mxCell>
        </object>
        <mxCell id="2fcEDWTHMLcBKndWBy0k-112" value="- id: String" style="text;strokeColor=none;fillColor=none;align=left;verticalAlign=top;spacingLeft=4;spacingRight=4;overflow=hidden;rotatable=0;points=[[0,0.5],[1,0.5]];portConstraint=eastwest;rounded=0;sketch=0;fontColor=#1D3557;" parent="2fcEDWTHMLcBKndWBy0k-111" vertex="1">
          <mxGeometry y="26" width="192" height="26" as="geometry" />
        </mxCell>
        <mxCell id="2fcEDWTHMLcBKndWBy0k-113" value="- quantite: Double" style="text;strokeColor=none;fillColor=none;align=left;verticalAlign=top;spacingLeft=4;spacingRight=4;overflow=hidden;rotatable=0;points=[[0,0.5],[1,0.5]];portConstraint=eastwest;rounded=0;sketch=0;fontColor=#1D3557;" parent="2fcEDWTHMLcBKndWBy0k-111" vertex="1">
          <mxGeometry y="52" width="192" height="26" as="geometry" />
        </mxCell>
        <mxCell id="2fcEDWTHMLcBKndWBy0k-114" value="- prixUnitaire: Double" style="text;strokeColor=none;fillColor=none;align=left;verticalAlign=top;spacingLeft=4;spacingRight=4;overflow=hidden;rotatable=0;points=[[0,0.5],[1,0.5]];portConstraint=eastwest;rounded=0;sketch=0;fontColor=#1D3557;" parent="2fcEDWTHMLcBKndWBy0k-111" vertex="1">
          <mxGeometry y="78" width="192" height="26" as="geometry" />
        </mxCell>
        <mxCell id="2fcEDWTHMLcBKndWBy0k-115" style="edgeStyle=orthogonalEdgeStyle;rounded=0;orthogonalLoop=1;jettySize=auto;html=1;exitX=0.5;exitY=0;exitDx=0;exitDy=0;entryX=0.5;entryY=1;entryDx=0;entryDy=0;" parent="1" source="2fcEDWTHMLcBKndWBy0k-116" target="2fcEDWTHMLcBKndWBy0k-111" edge="1">
          <mxGeometry relative="1" as="geometry" />
        </mxCell>
        <mxCell id="2fcEDWTHMLcBKndWBy0k-116" value="Ventes" style="swimlane;fontStyle=0;align=center;verticalAlign=top;childLayout=stackLayout;horizontal=1;startSize=26;horizontalStack=0;resizeParent=1;resizeLast=0;collapsible=1;marginBottom=0;rounded=1;shadow=0;strokeWidth=1;fillColor=#A8DADC;strokeColor=#457B9D;fontColor=#1D3557;" parent="1" vertex="1">
          <mxGeometry x="1713" y="-516" width="186" height="159" as="geometry">
            <mxRectangle x="550" y="140" width="160" height="26" as="alternateBounds" />
          </mxGeometry>
        </mxCell>
        <mxCell id="2fcEDWTHMLcBKndWBy0k-117" value="- id: String" style="text;strokeColor=none;fillColor=none;align=left;verticalAlign=top;spacingLeft=4;spacingRight=4;overflow=hidden;rotatable=0;points=[[0,0.5],[1,0.5]];portConstraint=eastwest;rounded=0;sketch=0;fontColor=#1D3557;" parent="2fcEDWTHMLcBKndWBy0k-116" vertex="1">
          <mxGeometry y="26" width="186" height="26" as="geometry" />
        </mxCell>
        <mxCell id="2fcEDWTHMLcBKndWBy0k-118" value="- code: String" style="text;strokeColor=none;fillColor=none;align=left;verticalAlign=top;spacingLeft=4;spacingRight=4;overflow=hidden;rotatable=0;points=[[0,0.5],[1,0.5]];portConstraint=eastwest;rounded=0;sketch=0;fontColor=#1D3557;" parent="2fcEDWTHMLcBKndWBy0k-116" vertex="1">
          <mxGeometry y="52" width="186" height="26" as="geometry" />
        </mxCell>
        <mxCell id="2fcEDWTHMLcBKndWBy0k-119" value="- dateVente: Date" style="text;strokeColor=none;fillColor=none;align=left;verticalAlign=top;spacingLeft=4;spacingRight=4;overflow=hidden;rotatable=0;points=[[0,0.5],[1,0.5]];portConstraint=eastwest;rounded=0;sketch=0;fontColor=#1D3557;" parent="2fcEDWTHMLcBKndWBy0k-116" vertex="1">
          <mxGeometry y="78" width="186" height="26" as="geometry" />
        </mxCell>
        <mxCell id="2fcEDWTHMLcBKndWBy0k-120" value="- commentaire: String" style="text;strokeColor=none;fillColor=none;align=left;verticalAlign=top;spacingLeft=4;spacingRight=4;overflow=hidden;rotatable=0;points=[[0,0.5],[1,0.5]];portConstraint=eastwest;rounded=0;sketch=0;fontColor=#1D3557;" parent="2fcEDWTHMLcBKndWBy0k-116" vertex="1">
          <mxGeometry y="104" width="186" height="26" as="geometry" />
        </mxCell>
        <mxCell id="2fcEDWTHMLcBKndWBy0k-121" style="edgeStyle=orthogonalEdgeStyle;rounded=0;orthogonalLoop=1;jettySize=auto;html=1;exitX=0;exitY=0.5;exitDx=0;exitDy=0;entryX=1.01;entryY=0.162;entryDx=0;entryDy=0;entryPerimeter=0;" parent="1" source="2fcEDWTHMLcBKndWBy0k-136" target="2fcEDWTHMLcBKndWBy0k-118" edge="1">
          <mxGeometry relative="1" as="geometry" />
        </mxCell>
        <mxCell id="2fcEDWTHMLcBKndWBy0k-122" style="edgeStyle=orthogonalEdgeStyle;rounded=0;orthogonalLoop=1;jettySize=auto;html=1;exitX=1;exitY=0.5;exitDx=0;exitDy=0;entryX=0;entryY=0.5;entryDx=0;entryDy=0;startArrow=none;" parent="1" source="2fcEDWTHMLcBKndWBy0k-131" target="2fcEDWTHMLcBKndWBy0k-29" edge="1">
          <mxGeometry relative="1" as="geometry" />
        </mxCell>
        <mxCell id="2fcEDWTHMLcBKndWBy0k-123" style="edgeStyle=orthogonalEdgeStyle;rounded=0;orthogonalLoop=1;jettySize=auto;html=1;exitX=1;exitY=0.5;exitDx=0;exitDy=0;" parent="1" source="2fcEDWTHMLcBKndWBy0k-113" edge="1">
          <mxGeometry relative="1" as="geometry">
            <mxPoint x="2436" y="-732" as="targetPoint" />
          </mxGeometry>
        </mxCell>
        <mxCell id="2fcEDWTHMLcBKndWBy0k-124" value="Machine" style="swimlane;fontStyle=0;align=center;verticalAlign=top;childLayout=stackLayout;horizontal=1;startSize=26;horizontalStack=0;resizeParent=1;resizeLast=0;collapsible=1;marginBottom=0;rounded=1;shadow=0;strokeWidth=1;fillColor=#A8DADC;strokeColor=#457B9D;fontColor=#1D3557;" parent="1" vertex="1">
          <mxGeometry x="2613" y="-1332" width="168" height="201" as="geometry">
            <mxRectangle x="550" y="140" width="160" height="26" as="alternateBounds" />
          </mxGeometry>
        </mxCell>
        <mxCell id="2fcEDWTHMLcBKndWBy0k-125" value="- id: String" style="text;strokeColor=none;fillColor=none;align=left;verticalAlign=top;spacingLeft=4;spacingRight=4;overflow=hidden;rotatable=0;points=[[0,0.5],[1,0.5]];portConstraint=eastwest;rounded=0;sketch=0;fontColor=#1D3557;" parent="2fcEDWTHMLcBKndWBy0k-124" vertex="1">
          <mxGeometry y="26" width="168" height="26" as="geometry" />
        </mxCell>
        <mxCell id="2fcEDWTHMLcBKndWBy0k-126" value="- reference: String" style="text;strokeColor=none;fillColor=none;align=left;verticalAlign=top;spacingLeft=4;spacingRight=4;overflow=hidden;rotatable=0;points=[[0,0.5],[1,0.5]];portConstraint=eastwest;rounded=0;sketch=0;fontColor=#1D3557;" parent="2fcEDWTHMLcBKndWBy0k-124" vertex="1">
          <mxGeometry y="52" width="168" height="26" as="geometry" />
        </mxCell>
        <mxCell id="2fcEDWTHMLcBKndWBy0k-127" value="- libelle: String" style="text;strokeColor=none;fillColor=none;align=left;verticalAlign=top;spacingLeft=4;spacingRight=4;overflow=hidden;rotatable=0;points=[[0,0.5],[1,0.5]];portConstraint=eastwest;rounded=0;sketch=0;fontColor=#1D3557;" parent="2fcEDWTHMLcBKndWBy0k-124" vertex="1">
          <mxGeometry y="78" width="168" height="26" as="geometry" />
        </mxCell>
        <mxCell id="2fcEDWTHMLcBKndWBy0k-128" value="- nbrConducteur: int" style="text;strokeColor=none;fillColor=none;align=left;verticalAlign=top;spacingLeft=4;spacingRight=4;overflow=hidden;rotatable=0;points=[[0,0.5],[1,0.5]];portConstraint=eastwest;rounded=0;sketch=0;fontColor=#1D3557;" parent="2fcEDWTHMLcBKndWBy0k-124" vertex="1">
          <mxGeometry y="104" width="168" height="26" as="geometry" />
        </mxCell>
        <mxCell id="2fcEDWTHMLcBKndWBy0k-129" value="- dateMaintenance: Date" style="text;strokeColor=none;fillColor=none;align=left;verticalAlign=top;spacingLeft=4;spacingRight=4;overflow=hidden;rotatable=0;points=[[0,0.5],[1,0.5]];portConstraint=eastwest;rounded=0;sketch=0;fontColor=#1D3557;" parent="2fcEDWTHMLcBKndWBy0k-124" vertex="1">
          <mxGeometry y="130" width="168" height="26" as="geometry" />
        </mxCell>
        <mxCell id="2fcEDWTHMLcBKndWBy0k-130" style="edgeStyle=orthogonalEdgeStyle;rounded=0;orthogonalLoop=1;jettySize=auto;html=1;exitX=0;exitY=0.5;exitDx=0;exitDy=0;entryX=1;entryY=0.5;entryDx=0;entryDy=0;" parent="1" source="2fcEDWTHMLcBKndWBy0k-127" target="2fcEDWTHMLcBKndWBy0k-79" edge="1">
          <mxGeometry relative="1" as="geometry" />
        </mxCell>
        <object label="Entreprise" id="2fcEDWTHMLcBKndWBy0k-131">
          <mxCell style="swimlane;fontStyle=0;align=center;verticalAlign=top;childLayout=stackLayout;horizontal=1;startSize=26;horizontalStack=0;resizeParent=1;resizeLast=0;collapsible=1;marginBottom=0;rounded=1;shadow=0;strokeWidth=1;fillColor=#A8DADC;strokeColor=#457B9D;fontColor=#1D3557;" parent="1" vertex="1">
            <mxGeometry x="2049" y="-605.25" width="150" height="256.5" as="geometry">
              <mxRectangle x="2240" y="50" width="160" height="26" as="alternateBounds" />
            </mxGeometry>
          </mxCell>
        </object>
        <mxCell id="2fcEDWTHMLcBKndWBy0k-132" value="- id: String" style="text;strokeColor=none;fillColor=none;align=left;verticalAlign=top;spacingLeft=4;spacingRight=4;overflow=hidden;rotatable=0;points=[[0,0.5],[1,0.5]];portConstraint=eastwest;rounded=0;sketch=0;fontColor=#1D3557;" parent="2fcEDWTHMLcBKndWBy0k-131" vertex="1">
          <mxGeometry y="26" width="150" height="26" as="geometry" />
        </mxCell>
        <mxCell id="2fcEDWTHMLcBKndWBy0k-133" value="- raisonSocial: String" style="text;strokeColor=none;fillColor=none;align=left;verticalAlign=top;spacingLeft=4;spacingRight=4;overflow=hidden;rotatable=0;points=[[0,0.5],[1,0.5]];portConstraint=eastwest;rounded=0;sketch=0;fontColor=#1D3557;" parent="2fcEDWTHMLcBKndWBy0k-131" vertex="1">
          <mxGeometry y="52" width="150" height="26" as="geometry" />
        </mxCell>
        <mxCell id="2fcEDWTHMLcBKndWBy0k-134" value="- description: String" style="text;strokeColor=none;fillColor=none;align=left;verticalAlign=top;spacingLeft=4;spacingRight=4;overflow=hidden;rotatable=0;points=[[0,0.5],[1,0.5]];portConstraint=eastwest;rounded=0;sketch=0;fontColor=#1D3557;" parent="2fcEDWTHMLcBKndWBy0k-131" vertex="1">
          <mxGeometry y="78" width="150" height="26" as="geometry" />
        </mxCell>
        <mxCell id="2fcEDWTHMLcBKndWBy0k-135" value="- adresse: String" style="text;strokeColor=none;fillColor=none;align=left;verticalAlign=top;spacingLeft=4;spacingRight=4;overflow=hidden;rotatable=0;points=[[0,0.5],[1,0.5]];portConstraint=eastwest;rounded=0;sketch=0;fontColor=#1D3557;" parent="2fcEDWTHMLcBKndWBy0k-131" vertex="1">
          <mxGeometry y="104" width="150" height="26" as="geometry" />
        </mxCell>
        <mxCell id="2fcEDWTHMLcBKndWBy0k-136" value="- codeFiscal: String" style="text;strokeColor=none;fillColor=none;align=left;verticalAlign=top;spacingLeft=4;spacingRight=4;overflow=hidden;rotatable=0;points=[[0,0.5],[1,0.5]];portConstraint=eastwest;rounded=0;sketch=0;fontColor=#1D3557;" parent="2fcEDWTHMLcBKndWBy0k-131" vertex="1">
          <mxGeometry y="130" width="150" height="26" as="geometry" />
        </mxCell>
        <mxCell id="2fcEDWTHMLcBKndWBy0k-137" value="- email: String" style="text;strokeColor=none;fillColor=none;align=left;verticalAlign=top;spacingLeft=4;spacingRight=4;overflow=hidden;rotatable=0;points=[[0,0.5],[1,0.5]];portConstraint=eastwest;rounded=0;sketch=0;fontColor=#1D3557;" parent="2fcEDWTHMLcBKndWBy0k-131" vertex="1">
          <mxGeometry y="156" width="150" height="26" as="geometry" />
        </mxCell>
        <mxCell id="2fcEDWTHMLcBKndWBy0k-138" value="- numTel: String" style="text;strokeColor=none;fillColor=none;align=left;verticalAlign=top;spacingLeft=4;spacingRight=4;overflow=hidden;rotatable=0;points=[[0,0.5],[1,0.5]];portConstraint=eastwest;rounded=0;sketch=0;fontColor=#1D3557;" parent="2fcEDWTHMLcBKndWBy0k-131" vertex="1">
          <mxGeometry y="182" width="150" height="26" as="geometry" />
        </mxCell>
        <mxCell id="2fcEDWTHMLcBKndWBy0k-139" value="" style="edgeStyle=orthogonalEdgeStyle;rounded=0;orthogonalLoop=1;jettySize=auto;html=1;exitX=1;exitY=0.5;exitDx=0;exitDy=0;entryX=0;entryY=0.5;entryDx=0;entryDy=0;endArrow=none;" parent="1" source="2fcEDWTHMLcBKndWBy0k-114" target="2fcEDWTHMLcBKndWBy0k-131" edge="1">
          <mxGeometry relative="1" as="geometry">
            <mxPoint x="1908" y="-665" as="sourcePoint" />
            <mxPoint x="2388" y="-609" as="targetPoint" />
          </mxGeometry>
        </mxCell>
        <mxCell id="2fcEDWTHMLcBKndWBy0k-140" style="edgeStyle=orthogonalEdgeStyle;rounded=0;orthogonalLoop=1;jettySize=auto;html=1;exitX=1;exitY=0.5;exitDx=0;exitDy=0;" parent="1" source="2fcEDWTHMLcBKndWBy0k-133" edge="1">
          <mxGeometry relative="1" as="geometry">
            <mxPoint x="2682" y="-1135.2105263157894" as="targetPoint" />
            <Array as="points">
              <mxPoint x="2199" y="-585" />
              <mxPoint x="2682" y="-585" />
            </Array>
          </mxGeometry>
        </mxCell>
        <object label="MvtStk_Matiere" id="2fcEDWTHMLcBKndWBy0k-141">
          <mxCell style="swimlane;fontStyle=0;align=center;verticalAlign=top;childLayout=stackLayout;horizontal=1;startSize=26;horizontalStack=0;resizeParent=1;resizeLast=0;collapsible=1;marginBottom=0;rounded=1;shadow=0;strokeWidth=1;fillColor=#A8DADC;strokeColor=#457B9D;fontColor=#1D3557;arcSize=12;" parent="1" vertex="1">
            <mxGeometry x="3081" y="-212" width="195" height="141" as="geometry">
              <mxRectangle x="2240" y="50" width="160" height="26" as="alternateBounds" />
            </mxGeometry>
          </mxCell>
        </object>
        <mxCell id="2fcEDWTHMLcBKndWBy0k-142" value="- id: String" style="text;strokeColor=none;fillColor=none;align=left;verticalAlign=top;spacingLeft=4;spacingRight=4;overflow=hidden;rotatable=0;points=[[0,0.5],[1,0.5]];portConstraint=eastwest;rounded=0;sketch=0;fontColor=#1D3557;" parent="2fcEDWTHMLcBKndWBy0k-141" vertex="1">
          <mxGeometry y="26" width="195" height="26" as="geometry" />
        </mxCell>
        <mxCell id="2fcEDWTHMLcBKndWBy0k-143" value="- dateMvt: Date" style="text;strokeColor=none;fillColor=none;align=left;verticalAlign=top;spacingLeft=4;spacingRight=4;overflow=hidden;rotatable=0;points=[[0,0.5],[1,0.5]];portConstraint=eastwest;rounded=0;sketch=0;fontColor=#1D3557;" parent="2fcEDWTHMLcBKndWBy0k-141" vertex="1">
          <mxGeometry y="52" width="195" height="26" as="geometry" />
        </mxCell>
        <mxCell id="2fcEDWTHMLcBKndWBy0k-144" value="- quantite: Double" style="text;strokeColor=none;fillColor=none;align=left;verticalAlign=top;spacingLeft=4;spacingRight=4;overflow=hidden;rotatable=0;points=[[0,0.5],[1,0.5]];portConstraint=eastwest;rounded=0;sketch=0;fontColor=#1D3557;" parent="2fcEDWTHMLcBKndWBy0k-141" vertex="1">
          <mxGeometry y="78" width="195" height="26" as="geometry" />
        </mxCell>
        <mxCell id="2fcEDWTHMLcBKndWBy0k-145" value="- typeMvt: String" style="text;strokeColor=none;fillColor=none;align=left;verticalAlign=top;spacingLeft=4;spacingRight=4;overflow=hidden;rotatable=0;points=[[0,0.5],[1,0.5]];portConstraint=eastwest;rounded=0;sketch=0;fontColor=#1D3557;" parent="2fcEDWTHMLcBKndWBy0k-141" vertex="1">
          <mxGeometry y="104" width="195" height="26" as="geometry" />
        </mxCell>
        <object label="MvtStk_Article" id="2fcEDWTHMLcBKndWBy0k-146">
          <mxCell style="swimlane;fontStyle=0;align=center;verticalAlign=top;childLayout=stackLayout;horizontal=1;startSize=26;horizontalStack=0;resizeParent=1;resizeLast=0;collapsible=1;marginBottom=0;rounded=1;shadow=0;strokeWidth=1;fillColor=#A8DADC;strokeColor=#457B9D;fontColor=#1D3557;arcSize=12;" parent="1" vertex="1">
            <mxGeometry x="3081" y="-24" width="195" height="141" as="geometry">
              <mxRectangle x="2240" y="50" width="160" height="26" as="alternateBounds" />
            </mxGeometry>
          </mxCell>
        </object>
        <mxCell id="2fcEDWTHMLcBKndWBy0k-147" value="- id: String" style="text;strokeColor=none;fillColor=none;align=left;verticalAlign=top;spacingLeft=4;spacingRight=4;overflow=hidden;rotatable=0;points=[[0,0.5],[1,0.5]];portConstraint=eastwest;rounded=0;sketch=0;fontColor=#1D3557;" parent="2fcEDWTHMLcBKndWBy0k-146" vertex="1">
          <mxGeometry y="26" width="195" height="26" as="geometry" />
        </mxCell>
        <mxCell id="2fcEDWTHMLcBKndWBy0k-148" value="- dateMvt: Date" style="text;strokeColor=none;fillColor=none;align=left;verticalAlign=top;spacingLeft=4;spacingRight=4;overflow=hidden;rotatable=0;points=[[0,0.5],[1,0.5]];portConstraint=eastwest;rounded=0;sketch=0;fontColor=#1D3557;" parent="2fcEDWTHMLcBKndWBy0k-146" vertex="1">
          <mxGeometry y="52" width="195" height="26" as="geometry" />
        </mxCell>
        <mxCell id="2fcEDWTHMLcBKndWBy0k-149" value="- quantite: Double" style="text;strokeColor=none;fillColor=none;align=left;verticalAlign=top;spacingLeft=4;spacingRight=4;overflow=hidden;rotatable=0;points=[[0,0.5],[1,0.5]];portConstraint=eastwest;rounded=0;sketch=0;fontColor=#1D3557;" parent="2fcEDWTHMLcBKndWBy0k-146" vertex="1">
          <mxGeometry y="78" width="195" height="26" as="geometry" />
        </mxCell>
        <mxCell id="2fcEDWTHMLcBKndWBy0k-150" value="- typeMvt: String" style="text;strokeColor=none;fillColor=none;align=left;verticalAlign=top;spacingLeft=4;spacingRight=4;overflow=hidden;rotatable=0;points=[[0,0.5],[1,0.5]];portConstraint=eastwest;rounded=0;sketch=0;fontColor=#1D3557;" parent="2fcEDWTHMLcBKndWBy0k-146" vertex="1">
          <mxGeometry y="104" width="195" height="26" as="geometry" />
        </mxCell>
      </root>
    </mxGraphModel>
  </diagram>
</mxfile>
